<svg  height="84" viewBox="0 0 372 84" fill="none" xmlns="http://www.w3.org/2000/svg">
<path d="M25.349 0.0101698C30.2609 -0.015883 36.6996 0.0119737 41.5928 0.0502087C43.1264 0.0620673 42.3499 0.115075 43.4085 0.125648C45.479 0.146258 47.4079 0.120261 49.4539 0.144813C50.132 0.153209 49.288 0.237174 49.999 0.244056C53.8952 0.281163 57.5812 0.259777 61.5281 0.277625C80.9695 0.365685 100.08 0.397205 119.759 0.435461C126.248 0.448004 134.136 0.524206 140.838 0.490881C141.62 0.486916 141.154 0.413216 141.303 0.407141C143.637 0.31415 142.861 0.462935 144.386 0.482702C150.436 0.560754 157.164 0.567542 162.987 0.539099C165.464 0.526782 162.98 0.380395 165.474 0.462561C165.648 0.468112 165.019 0.546377 165.698 0.554724C167.239 0.573498 170.162 0.559509 171.356 0.56571C173.657 0.578057 174.038 0.577269 176.214 0.578161C179.19 0.580061 182.729 0.618966 185.921 0.601232C186.603 0.597215 185.701 0.516985 186.787 0.503332C187.875 0.489702 190.753 0.496505 191.723 0.515417C192.693 0.534339 192.28 0.597399 192.452 0.611852C193.864 0.733849 197.193 0.564884 197.621 0.560705C205.43 0.489506 212.126 0.58576 219.455 0.585485C225.02 0.585073 230.97 0.553296 236.264 0.557653C242.572 0.563155 247.918 0.606631 254.046 0.599157C254.693 0.598461 253.935 0.504129 254.725 0.503088C263.117 0.492111 271.451 0.502394 279.806 0.566076C280.644 0.572546 279.564 0.655368 280.401 0.666784C285.527 0.734849 293.638 0.898357 296.682 0.537756C300.154 0.551837 304.369 0.566385 307.476 0.639074C309.478 0.685858 307.533 0.776084 309.993 0.737585C310.548 0.729007 309.827 0.649991 310.659 0.643102C314.162 0.614176 317.99 0.639861 321.456 0.599035C322.161 0.590545 321.968 0.519744 322.168 0.506994C323.847 0.403741 326.641 0.574425 327.25 0.586828C331.889 0.679315 335.277 0.642919 339.599 0.645178C340.602 0.645741 339.416 0.550639 340.381 0.547766C345.226 0.534572 350.239 0.541809 355 0.580561C355.162 0.581842 355.324 0.585517 355.485 0.591527C356.6 0.651301 355.569 0.681933 356.101 0.72046C358.418 0.983137 358.982 0.965522 361.093 1.77076C361.53 1.95685 361.255 1.91988 361.333 1.95983C362.529 2.58902 363.601 3.06984 363.898 3.25943C367.559 5.72568 369.225 8.31015 370.575 12.2882C370.717 12.7755 370.496 11.6435 370.876 13.0257C371.201 14.3132 371.368 15.6523 371.369 17C371.379 25.1467 371.353 33.5714 371.292 41.5272C371.281 42.964 371.215 41.9383 371.207 42.0287C371.08 43.5024 371.25 44.4559 371.257 44.9244C371.303 48.6205 371.16 52.0731 371.363 54.5844C371.344 58.7279 371.339 62.8663 371.337 67C371.548 75.7221 363.669 83.5615 355 83.3015C351.928 83.285 348.858 83.2607 345.791 83.2248C345.593 83.2227 345.947 83.1389 345.553 83.1351C340.812 83.0881 341.722 83.2183 338.585 83.3775C337.795 83.4175 335.39 83.2252 335.178 83.2111C334.403 83.1592 335.207 83.0346 334.947 83.0245C332.799 82.9455 333.149 83.3577 330.252 83.3579C330.162 83.3572 330.542 83.2813 330.299 83.2738C329.544 83.2501 328.795 83.2802 328.056 83.2541C326.364 83.1937 325.761 82.9934 323.177 83.1099C322.85 83.1251 323.35 83.3589 320.763 83.3479C319.732 83.3433 315.167 83.3473 313.888 83.3321C312.611 83.317 313.488 83.2416 313.397 83.2384C309.954 83.1387 311.26 83.0974 309.535 82.9499C307.81 82.803 308.288 83.1535 307.585 83.1926C306.881 83.2316 304.357 83.1494 303.737 83.1208C303.117 83.0922 303.89 83.0443 303.339 83.0282C299.684 82.9225 301.734 83.2021 300.53 83.2578C297.691 83.3895 295.479 83.1296 292.88 83.1041C292.176 83.0972 292.75 83.1564 292.124 83.1619C289.643 83.1831 288.152 83.102 285.33 83.1764C284.868 83.1885 282.586 83.3448 281.11 83.2301C280.901 83.2135 281.495 83.1488 280.438 83.1342C278.858 83.1125 276.013 83.0983 274.315 83.12C273.062 83.136 274.499 83.2427 272.921 83.2096C272.22 83.1948 273.519 83.1323 272.202 83.1097C270.892 83.0871 267.542 83.0899 266.267 83.092C264.995 83.0942 265.691 83.1752 265.588 83.1806C264.966 83.2119 262.524 83.2509 262.308 83.2508C251.423 83.2607 241.385 83.1242 230.787 83.1694C229.955 83.1728 230.509 83.2582 230.382 83.2596C227.535 83.2954 229.78 83.0684 227.791 82.9924C228.078 83.1657 226.904 83.1343 224.898 83.1533C223.932 83.1626 224.458 83.2297 224.37 83.2365C222.937 83.3384 221.939 83.2068 221.682 83.1799C220.733 83.0809 219.7 83.1979 219.054 83.1317C218.408 83.066 219.894 82.9686 217.97 82.9698C217.431 83.0318 218.859 83.1939 217.398 83.2202C211.888 83.3195 201.603 83.1924 197.172 83.1792C192.751 83.166 191.323 83.1774 188.746 83.155C184.092 83.1145 185.798 83.2347 182.908 83.2898C180.01 83.3448 181.419 83.0489 181.002 82.9853C180.593 82.9217 180.146 82.9872 179.638 82.9522C179.131 82.9173 180.228 82.874 179.036 82.8609C177.843 82.8478 174.58 82.9609 174.157 83.0274C173.263 83.1683 174.733 83.3162 171.576 83.2642C171.395 83.2612 171.984 83.1834 171.289 83.1755C165.766 83.1156 160.029 83.1119 154.513 83.0589C153.755 83.0515 154.433 82.965 153.991 82.9597C149.394 82.9043 151.037 83.0503 148.518 83.2124C149.084 82.9966 147.69 82.8646 144.201 82.8634C142.104 82.8625 142.465 82.9567 141.108 83.0232C140.701 83.0432 139.217 82.9785 138.948 83.0228C138.061 83.1676 139.459 83.3298 135.862 83.2652C135.704 83.2622 136.206 83.1829 135.661 83.1781C132.136 83.1466 131.714 83.2981 127.904 83.3165C124.917 83.3309 119.605 83.2385 116.204 83.2235C116.276 82.9809 113.063 83.0365 111.76 83.2037C109.553 83.1969 107.169 83.2063 105.036 83.1832C104.302 83.1753 104.784 83.1051 104.692 83.0975C103.272 82.9785 102.312 83.1412 101.836 83.1475C96.6728 83.2095 92.4659 83.0862 87.5383 83.2067C87.3635 83.2111 87.0801 83.3796 85.7628 83.2566C85.6776 83.2481 87.305 83.1714 84.9871 83.1655C82.6686 83.1596 78.2981 83.0692 75.0796 83.1473C74.3007 83.1661 72.3306 83.3029 70.7495 83.196C70.5388 83.1815 70.7694 83.1332 70.4653 83.1063C69.4823 83.0206 68.9457 83.1909 67.7903 83.0462C66.6349 82.9016 64.2318 82.7932 60.9858 82.893C60.8825 82.8959 60.1141 83.0309 59.0933 83.0288C57.4637 83.0253 55.1505 82.9971 53.4491 82.998C52.6344 82.9985 53.1558 83.0823 53.0144 83.0838C47.5368 83.1308 43.6384 83.0561 37.7704 83.0236C36.6947 83.0175 33.6034 83.1318 31.5209 83.0415C29.2343 82.9426 31.5841 82.5311 26.3281 82.6291C24.2083 82.6683 21.5243 83.1903 17.7147 82.9199C17.4759 82.9221 17.2377 82.924 17 82.9258C9.85447 83.0041 3.53073 78.0382 1.6029 71.1561C1.50725 70.8411 1.12747 69.8417 1.03788 69.0552C0.931476 68.1756 0.95246 67.5924 0.970908 67C0.977706 66.8099 0.982583 66.6188 0.983677 66.4163C1.00419 62.937 0.945929 59.7531 0.954991 56.3985C0.958284 55.1249 1.02869 55.5703 1.03263 54.0512C1.0365 52.5331 0.943782 51.5209 0.98856 49.4637C1.02269 47.91 1.2122 46.3565 1.23429 44.2943C1.04736 44.2156 1.05121 42.7992 1.00187 40.2818C0.992292 39.7979 0.927231 40.3168 0.919347 40.0879C0.885814 39.1563 0.939735 38.2941 0.903233 37.4095C0.894467 37.1943 0.83063 37.1842 0.81986 37.0083C0.725848 35.5124 0.869442 33.048 0.894444 32.6247C0.989396 31.0024 0.906369 30.2443 0.943761 29.0001C0.981147 27.7578 1.02788 29.6153 1.05057 28.1641C1.0975 25.1562 1.08719 21.2915 1.09012 18.2366C1.0909 17.0177 1.00569 17.8493 1.00382 17.6749C1.00189 17.4499 1.00085 17.2246 1.00045 17C0.978624 14.6939 1.62229 12.5376 1.94226 11.2979C3.0573 9.88252 2.30849 9.75556 4.53973 6.88012C4.73027 6.66504 5.10213 6.51822 4.45746 7.37944C3.81992 8.2424 2.8933 9.60701 2.37977 11.0155C2.22048 11.3412 1.81149 13.3216 1.79801 13.5913C1.46973 15.6919 1.26303 15.987 1.21403 16.1005C1.16259 16.3588 1.13093 16.6653 1.121 17C1.08122 18.3355 1.21746 20.043 1.22904 20.5705C1.29537 23.5894 1.25176 26.1541 1.29911 28.6791C1.32971 30.3305 1.53286 30.492 1.52664 31.7887C1.50609 36.0994 1.22269 37.604 1.46842 41.6661C1.52083 42.5371 1.74287 41.6715 1.56827 44.7925C1.55726 44.9885 1.39754 47.3057 1.49857 48.6444C1.51131 48.8126 1.57602 48.8072 1.58145 49.029C1.61662 50.515 1.56506 51.5061 1.58975 53.125C1.61445 54.7438 1.65125 56.6903 1.62931 58.5385C1.61618 59.6523 1.49562 61.0815 1.4661 61.6147C1.38107 63.1203 1.52048 64.7346 1.41751 65.6673C1.31752 66.5761 1.16742 64.8902 1.09708 67C1.09462 67.0738 1.09276 67.1521 1.0917 67.2352C1.26087 67.3242 1.43844 67.5257 1.6136 67.6589C1.79043 72.8668 4.75757 77.8347 9.33506 80.4213C9.9029 80.736 9.36463 80.3409 9.97719 80.6622C12.2304 81.7938 14.4693 82.3787 17 82.3884C17.41 82.3878 17.827 82.386 18.253 82.3825C20.6942 82.3623 23.371 82.2666 25.9235 82.2425C27.4827 82.4349 31.2705 82.3696 34.022 82.3872C34.9859 82.3932 34.9215 82.4446 35.607 82.4614C38.1929 82.5234 36.9812 82.3534 37.6901 82.3266C40.7317 82.2124 40.9921 82.5972 44.5782 82.5877C44.7681 82.5874 47.0905 82.3822 47.4103 82.3695C49.4427 82.2862 47.7467 82.4409 49.0186 82.456C51.3409 82.4837 52.9547 82.5327 55.6793 82.4726C56.4738 82.4548 58.3796 82.327 59.9225 82.4259C60.1254 82.4388 60.0134 82.5066 60.1766 82.5106C63.1337 82.5768 63.2116 82.3637 64.9013 82.2916C66.5914 82.2195 69.2018 82.3665 69.733 82.4089C71.1227 82.5185 68.6681 82.4558 68.5928 82.4665C67.7087 82.5946 69.6125 82.5725 71.0671 82.5833C71.2778 82.7922 73.312 82.7797 72.5752 82.5937C72.4913 82.5734 71.3593 82.5929 71.0671 82.5833C72.344 82.3784 74.5797 82.3522 77.0491 82.5437C78.205 82.6334 77.1122 82.7381 80.6235 82.6998C82.217 82.6825 81.6013 82.5387 83.0076 82.4995C86.2204 82.41 90.3952 82.5442 93.7075 82.523C94.9096 82.5154 93.7385 82.4366 94.5602 82.4287C96.7405 82.4073 98.6633 82.4664 100.853 82.4361C101.051 82.4333 100.567 82.3509 101.248 82.3498C106.41 82.3402 110.905 82.393 116.294 82.3945C118.898 82.3952 123.554 82.3497 126.252 82.3589C130.927 82.3742 136.679 82.494 140.673 82.4649C143.278 82.4463 142.707 82.3639 143.823 82.3077C145.977 82.1988 149.79 82.3938 150.303 82.424C150.319 82.425 148.077 82.4445 149.273 82.4868C149.969 82.575 150.278 82.4244 150.303 82.424C150.64 82.4435 155.119 82.4623 156.008 82.4465C156.491 82.4379 156.221 82.3598 156.473 82.3568C162.46 82.2869 168.459 82.267 174.532 82.3036C174.639 82.3051 174.478 82.3925 174.729 82.3951C178.245 82.434 180.496 82.3271 183.396 82.2636C186.295 82.2002 188.595 82.2215 190.311 82.3714C192.499 82.3525 195.637 82.4188 197.443 82.4591C199.249 82.4993 199.501 82.3293 199.66 82.3259C204.616 82.2183 207.482 82.3156 212.624 82.3308C215.068 82.3383 219.918 82.3136 222.565 82.295C224.656 82.28 225.917 82.3199 227.844 82.2944C228.105 82.291 227.842 82.2153 227.921 82.2124C230.072 82.1218 229.039 82.3069 229.483 82.3399C231.093 82.4601 232.088 82.5242 234.843 82.4676C235.478 82.4547 237.329 82.1882 238.487 82.1726C239.993 82.1528 239.425 82.2483 241.002 82.2252C241.137 82.2233 241.109 82.1644 242.082 82.167C246.599 82.1782 251.525 82.2125 256.219 82.2066C256.86 82.2061 256.038 82.1126 256.965 82.1102C261.312 82.0991 266.077 82.1026 270.313 82.1463C271.355 82.1574 270.702 82.2228 270.928 82.2423C272.318 82.3599 274.288 82.189 274.613 82.1858C282.368 82.1037 288.303 82.2583 296.207 82.1847C296.637 82.1803 299.949 81.9972 301.426 82.1543C301.527 82.1647 302.989 82.3254 304.282 82.2155C304.362 82.2087 303.451 82.1259 305.041 82.1344C306.63 82.1428 309.189 82.0875 311.374 82.1784C312.066 82.2071 313.701 82.3674 315.764 82.2396C315.899 82.2307 319.084 81.9417 320.221 82.1411C320.406 82.1739 320.213 82.3849 322.676 82.2767C323.146 82.2557 322.292 82.2087 323.532 82.1793C325.431 82.134 327.948 82.1905 330.283 82.0965C330.69 82.0799 332.423 81.9367 333.814 82.0454C334.031 82.0624 333.618 82.1328 334.352 82.1407C337.844 82.1785 341.5 82.1314 345.045 82.1801C346.301 82.1973 345.659 82.3111 346.968 82.3416C348.277 82.3721 350.914 82.4015 352.284 82.3495C353.654 82.2974 352.158 82.1159 354.21 82.1014C354.474 82.0995 354.737 82.0978 355 82.0963C363.038 82.2342 370.311 75.0998 370.159 67C370.159 66.7503 370.16 66.5005 370.16 66.2506C370.163 64.9291 370.098 66.0247 370.097 64.0772C370.092 56.8971 370.031 44.5007 370.169 38.2704C370.279 33.2784 370.363 39.5605 370.408 35.7459C370.43 33.9051 370.219 31.9136 370.212 31.4692C370.145 27.1283 370.238 24.1114 370.21 20.2042C370.204 19.3974 370.118 20.1887 370.114 19.5021C370.109 18.6778 370.11 17.8389 370.114 17C370.122 15.5333 369.918 14.0716 369.526 12.7533C369.242 11.8463 369.235 12.0337 368.92 11.2226C368.121 9.29799 367.086 7.72771 365.685 6.23665C365.555 6.1011 366.514 6.9309 365.399 5.8368C363.581 4.08948 360.747 2.45762 357.855 2.00728C356.996 1.89151 356.96 1.96567 355.118 1.80615C355.066 1.80285 355.029 1.79701 355 1.78956C354.805 1.74185 354.93 1.62584 352.97 1.7598C352.589 1.78553 348.783 1.99442 346.915 1.85977C346.422 1.82434 345.164 1.67767 344.076 1.70072C343.928 1.70439 344.52 1.78457 343.618 1.79239C340.44 1.81856 337.109 1.81 333.844 1.83512C332.972 1.84198 334.271 1.92495 332.971 1.93253C329.398 1.9535 324.937 1.93237 321.442 1.9064C320.154 1.89667 321.045 1.82795 320.951 1.82047C319.443 1.69882 318.552 1.86302 318.052 1.87259C314.94 1.92992 312.571 1.85279 309.703 1.8732C308.911 1.87863 309.472 1.95692 309.315 1.9639C307.681 2.03211 308.898 1.89151 307.863 1.87601C304.966 1.83212 301.736 1.83842 298.805 1.84842C297.729 1.85221 298.939 1.94299 297.973 1.94534C292.256 1.96099 286.312 1.9523 280.733 1.90225C279.682 1.89267 280.343 1.82276 280.124 1.80679C278.615 1.69509 276.403 1.84746 275.894 1.86197C273.58 1.92824 272.681 1.86642 270.638 1.87796C260.655 1.93541 248.329 1.89447 238.906 1.86917C226.627 1.83662 217.098 1.77012 205.388 1.78739C204.644 1.7884 205.395 1.88139 204.753 1.88345C196.47 1.90587 188.316 1.86953 180.016 1.89639C179.335 1.89843 180.317 1.98659 179.224 1.99283C176.982 2.00624 174.141 2.00145 171.874 1.9733C170.769 1.95974 172.252 1.88409 171.139 1.87198C168.547 1.84362 165.769 1.83734 163.107 1.85147C161.974 1.85768 163.683 1.94784 162.211 1.94888C152.181 1.95783 142.33 1.97336 132.194 1.8566C131.499 1.84858 130.89 1.66533 129.412 1.70047C129.301 1.75133 129.307 1.81115 129.259 1.86551C114.657 1.89479 100.205 1.83127 85.5628 1.82144C84.9454 1.82105 86.0124 1.91815 84.8171 1.91788C77.8995 1.91644 71.1821 1.94334 64.1061 1.84683C63.4041 1.8374 63.7643 1.66658 61.6953 1.69242C61.3304 1.69713 58.2143 1.71991 57.4087 1.75699C57.2992 1.76258 57.8677 1.84231 56.8636 1.84464C51.0284 1.85674 44.9135 1.83854 39.0884 1.78983C38.1483 1.78181 39.1494 1.69691 38.4798 1.69046C33.73 1.64539 28.5636 1.70993 24.0249 1.63285C20.9869 1.58094 22.1117 1.43417 20.4973 1.28971C20.269 1.26932 18.3877 1.26609 18.2904 1.18204C18.0407 0.970681 18.9519 0.739242 18.578 0.513952C18.499 0.465427 15.9796 0.517692 17.4712 0.400427C17.5754 0.392579 19.4021 0.35366 19.852 0.31388C20.1652 0.286376 19.6007 0.200894 20.2398 0.165687C20.8789 0.130513 21.5811 0.202169 22.6406 0.160804C23.6997 0.118927 23.234 0.0216813 25.349 0.0101698ZM205.575 82.6389C207.247 82.7205 207.494 82.4214 205.685 82.493C205.598 82.4968 205.489 82.6349 205.575 82.6389ZM5.11435 77.2369C6.44009 78.9501 7.7979 79.6363 6.6948 78.608C5.64749 77.5456 4.73429 76.7073 5.11435 77.2369ZM1.21756 55.7064C1.11355 58.2615 1.53768 58.6637 1.45194 55.9271C1.44709 55.7679 1.2236 55.557 1.21756 55.7064ZM27.9839 1.24857C27.9608 1.2446 26.6085 1.24073 26.5762 1.24466C25.8561 1.33965 28.5602 1.34733 27.9839 1.24857ZM1.11271 33.2098C1.05533 34.0075 1.12156 36.3041 1.19291 35.313C1.2503 34.5152 1.18407 32.2164 1.11271 33.2098ZM292.809 82.9581C292.836 82.9626 293.805 82.9666 293.786 82.9414C293.72 82.8602 292.371 82.8831 292.809 82.9581ZM13.931 1.40389C11.1634 1.92914 9.14383 3.04627 8.43022 3.39575C7.73996 3.8105 8.14831 3.13231 11.029 1.91557C12.0633 1.47684 8.86016 3.00464 10.1754 2.44071C12.5589 1.43431 14.2697 0.818008 16.9508 0.87987C17.4203 0.845922 14.2262 1.25972 13.9214 1.40628C13.9246 1.40548 13.9278 1.40468 13.931 1.40389ZM206.538 82.9981C206.572 83.0021 207.914 83.0058 207.946 83.0019C208.673 82.907 205.969 82.8994 206.538 82.9981ZM349.382 83.143C349.456 83.1515 352.571 83.1593 352.672 83.1516C354.297 82.9963 348 82.9799 349.382 83.143ZM116.151 83.217C114.686 83.3125 112.934 83.3238 111.767 83.2038C113.222 83.2102 114.687 83.2111 116.151 83.217Z" fill="black"/>
</svg>
