<svg width="375" height="3" viewBox="0 0 340 3" fill="none" xmlns="http://www.w3.org/2000/svg">
<path d="M1 1H339V2H1V1Z" fill="#EDEDFE"/>
<path d="M7.45799 0.505085C11.2573 0.492059 16.2376 0.505987 20.0226 0.525104C21.2088 0.531034 20.6081 0.557538 21.427 0.562824C23.0285 0.573129 24.5205 0.56013 26.1031 0.572406C26.6276 0.576605 25.9747 0.618587 26.5247 0.622028C29.5385 0.640582 32.3896 0.629888 35.4425 0.638813C50.4804 0.682843 65.2623 0.698602 80.4841 0.717731C85.5032 0.724002 91.6045 0.762103 96.7886 0.745441C97.3938 0.743458 97.033 0.706608 97.1481 0.703571C98.9541 0.657075 98.3536 0.731467 99.5328 0.741351C104.213 0.780377 109.417 0.783771 113.921 0.769549C115.837 0.763391 113.916 0.690198 115.845 0.73128C115.979 0.734056 115.493 0.773188 116.018 0.777362C117.21 0.786749 119.471 0.779755 120.394 0.782855C122.174 0.789028 122.469 0.788635 124.152 0.789081C126.454 0.790031 129.191 0.809483 131.661 0.800616C132.188 0.798607 131.49 0.758493 132.331 0.751666C133.172 0.744851 135.398 0.748252 136.148 0.757709C136.899 0.76717 136.579 0.798699 136.712 0.805926C137.805 0.866925 140.379 0.782442 140.71 0.780353C146.75 0.744753 151.93 0.79288 157.599 0.792743C161.903 0.792536 166.506 0.776648 170.601 0.778827C175.48 0.781578 179.615 0.803315 184.355 0.799579C184.856 0.79923 184.269 0.752065 184.88 0.751544C191.372 0.746056 197.818 0.751197 204.281 0.783038C204.929 0.786273 204.094 0.827684 204.741 0.833392C208.706 0.867424 214.979 0.949179 217.334 0.768878C220.02 0.775918 223.28 0.783193 225.683 0.819537C227.232 0.842929 225.727 0.888042 227.63 0.868792C228.06 0.864503 227.502 0.824995 228.145 0.821551C230.855 0.807088 233.816 0.81993 236.497 0.799518C237.042 0.795273 236.893 0.759872 237.047 0.753497C238.346 0.701871 240.507 0.787213 240.979 0.793414C244.567 0.839658 247.187 0.82146 250.53 0.822589C251.306 0.822871 250.389 0.77532 251.135 0.773883C255.007 0.767068 259.017 0.771155 262.808 0.792254C263.651 0.797062 262.876 0.837567 263.278 0.841937C265.055 0.860712 265.449 0.784209 267.153 0.800738C267.512 0.804125 267.31 0.8388 267.375 0.842608C268.401 0.902389 269.292 0.817684 269.556 0.815814C272.892 0.790261 275.025 0.878689 278.248 0.866168C278.634 0.86458 277.764 0.820706 278.848 0.818927C286.07 0.806815 293.708 0.818867 300.856 0.853961C301.967 0.859358 301.174 0.892317 301.244 0.89638C302.384 0.959864 303.121 0.874803 303.484 0.8716C306.342 0.848541 309.013 0.919874 310.956 0.81856C320.335 0.845798 329.682 0.817791 339 0.845986C339.087 0.845858 339.154 0.912877 339.154 1C339.153 1.33337 339.152 1.6667 339.151 2C339.151 2.08529 339.085 2.15064 339 2.15077C336.624 2.14251 334.249 2.13034 331.877 2.11241C331.724 2.11136 331.998 2.06947 331.693 2.06755C328.025 2.04403 328.73 2.10913 326.303 2.18876C325.692 2.20876 323.832 2.11262 323.667 2.10557C323.068 2.0796 323.69 2.01728 323.489 2.01225C321.828 1.97276 322.099 2.17887 319.858 2.17894C319.788 2.17859 320.082 2.14066 319.894 2.13688C319.31 2.12504 318.73 2.14012 318.159 2.12706C316.85 2.09684 316.384 1.99669 314.385 2.05498C314.132 2.06254 314.518 2.17946 312.518 2.17393C311.72 2.17163 308.19 2.17364 307.2 2.16606C306.212 2.15849 306.89 2.12082 306.82 2.11918C304.157 2.06936 305.167 2.04872 303.833 1.97496C302.499 1.90148 302.869 2.07673 302.325 2.0963C301.78 2.1158 299.828 2.0747 299.348 2.06041C298.868 2.04611 299.466 2.02217 299.04 2.01408C296.213 1.96123 297.799 2.10107 296.868 2.12889C294.671 2.19475 292.961 2.06478 290.95 2.05205C290.406 2.04861 290.85 2.07821 290.365 2.08098C288.447 2.09155 287.293 2.05099 285.11 2.08818C284.753 2.09424 282.988 2.17238 281.846 2.11503C281.684 2.10676 282.144 2.07438 281.326 2.06712C280.105 2.05623 277.904 2.04915 276.59 2.05998C275.621 2.06799 276.732 2.12136 275.512 2.10478C274.97 2.09738 275.975 2.06616 274.956 2.05485C273.942 2.04355 271.351 2.04492 270.365 2.046C269.381 2.0471 269.919 2.08759 269.84 2.09031C269.359 2.10594 267.47 2.12546 267.303 2.12541C258.883 2.13035 251.119 2.06211 242.921 2.0847C242.278 2.08641 242.706 2.1291 242.608 2.1298C240.406 2.14769 242.142 2.03419 240.604 1.9962C240.826 2.08283 239.918 2.06714 238.366 2.07664C237.619 2.08129 238.026 2.11483 237.958 2.11827C236.849 2.16922 236.077 2.10341 235.878 2.08995C235.144 2.04043 234.345 2.09894 233.845 2.06584C233.346 2.03299 234.495 1.98428 233.007 1.98491C232.59 2.01592 233.695 2.09696 232.565 2.11009C228.303 2.15977 220.347 2.09619 216.92 2.08958C213.5 2.08298 212.395 2.0887 210.403 2.0775C206.803 2.05723 208.122 2.11736 205.887 2.14488C203.645 2.1724 204.735 2.02446 204.413 1.99266C204.096 1.96087 203.751 1.99359 203.357 1.97612C202.965 1.95865 203.814 1.93702 202.892 1.93046C201.969 1.92391 199.445 1.98046 199.118 2.01372C198.427 2.08416 199.564 2.1581 197.122 2.13212C196.981 2.13058 197.437 2.09168 196.899 2.08775C192.627 2.0578 188.19 2.05595 183.923 2.02946C183.337 2.02576 183.861 1.98249 183.52 1.97984C179.964 1.95216 181.235 2.02513 179.286 2.10618C179.724 1.99832 178.646 1.93232 175.947 1.93168C174.325 1.93126 174.604 1.97838 173.555 2.01158C173.24 2.02159 172.092 1.98924 171.884 2.0114C171.198 2.08382 172.279 2.16489 169.497 2.13261C169.375 2.13108 169.763 2.09143 169.341 2.08903C166.615 2.07332 166.288 2.14907 163.341 2.15825C161.031 2.16544 156.922 2.11925 154.291 2.11174C154.347 1.99046 151.862 2.01823 150.854 2.10185C149.147 2.09843 147.303 2.10315 145.653 2.0916C145.085 2.08766 145.458 2.05254 145.386 2.04875C144.288 1.98923 143.546 2.07058 143.178 2.07377C139.184 2.10478 135.93 2.04312 132.118 2.10338C131.983 2.10555 131.764 2.18979 130.745 2.12828C130.679 2.12404 131.938 2.08571 130.145 2.08275C128.352 2.07978 124.971 2.03462 122.482 2.07365C121.879 2.08305 120.355 2.15144 119.132 2.098C118.969 2.09075 119.147 2.06659 118.912 2.05314C118.152 2.0103 117.737 2.09545 116.843 2.02311C115.95 1.95078 114.091 1.89661 111.58 1.94652C111.5 1.94797 110.906 2.01545 110.116 2.01439C108.856 2.01263 107.066 1.99857 105.75 1.99901C105.12 1.99924 105.523 2.04115 105.414 2.04191C101.177 2.0654 98.1617 2.02804 93.6228 2.01182C92.7908 2.00877 90.3997 2.06591 88.7889 2.02073C87.0202 1.97128 88.8377 1.76554 84.7722 1.81456C83.1325 1.83416 81.0565 2.09517 78.1097 1.95994C72.3947 1.99345 67.1095 1.92424 61.3785 1.97209C61.1208 1.97421 60.3059 2.04706 59.7 2.04606C58.8005 2.04445 58.3068 2.0104 57.6645 2.00816C54.9732 1.99791 52.5105 2.02704 49.9157 2.0225C48.9307 2.02086 49.275 1.98565 48.1001 1.98369C46.9258 1.98175 46.1429 2.02811 44.5516 2.00572C43.3498 1.98865 42.1483 1.8939 40.5531 1.88286C40.4922 1.97632 39.3967 1.97439 37.4494 1.99907C37.075 2.00385 37.4766 2.03638 37.2994 2.04033C36.5788 2.05709 35.912 2.03013 35.2277 2.04838C35.0613 2.05277 35.0534 2.08469 34.9174 2.09007C33.7603 2.13708 31.8541 2.06528 31.5266 2.05278C30.2718 2.0053 29.6854 2.04682 28.723 2.02812C27.7621 2.00943 29.1989 1.98606 28.0764 1.97471C25.7498 1.95125 22.7604 1.95641 20.3975 1.95494C19.4547 1.95455 20.0979 1.99716 19.963 1.99809C18.0135 2.0089 16.0419 1.96358 14.9609 2.04844C13.6093 1.82901 13.7852 2.06973 10.9986 2.0258C10.7791 2.02225 10.4999 1.91848 11.3426 1.90324C12.1853 1.88802 13.4632 1.92046 14.6325 1.89671C14.9093 1.89114 16.4955 1.7939 16.7119 1.78801C18.4071 1.74197 18.6474 1.89704 18.737 1.90556C19.7541 1.99748 21.6924 1.89272 22.2028 1.88548C24.5378 1.85231 26.5217 1.87412 28.4747 1.85045C29.752 1.83515 29.8771 1.73357 30.88 1.73668C34.2144 1.74695 35.3782 1.88866 38.5202 1.76579C39.1939 1.73959 38.5244 1.62857 40.9384 1.71586C41.0901 1.72137 42.8825 1.80123 43.9179 1.75072C44.048 1.74435 44.0439 1.71199 44.2154 1.70927C45.3648 1.69169 46.1315 1.71747 47.3837 1.70512C48.6357 1.69278 50.1414 1.67437 51.571 1.68535C52.4325 1.69191 53.538 1.75219 53.9505 1.76695C55.1151 1.80947 56.3636 1.73976 57.0851 1.79124C57.8127 1.84299 56.3903 1.92157 58.2981 1.955C58.3688 1.87094 58.5311 1.78466 58.6447 1.70012C62.8256 1.70308 66.9394 1.73026 71.1343 1.72655C71.6544 1.726 71.1225 1.68081 71.68 1.67906C74.0323 1.67188 76.0868 1.7041 78.5262 1.69127C80.4143 1.68116 82.4849 1.63332 84.4593 1.62126C85.6653 1.71745 88.5952 1.6848 90.7235 1.69359C91.4691 1.69662 91.4192 1.72232 91.9494 1.7307C93.9497 1.76169 93.0123 1.67669 93.5607 1.66331C95.9134 1.60622 96.1149 1.79862 98.8886 1.79387C99.0356 1.79368 100.832 1.69112 101.079 1.68474C102.651 1.64309 101.34 1.72043 102.323 1.72801C104.12 1.74186 105.368 1.76635 107.475 1.73631C108.09 1.72741 109.564 1.66349 110.757 1.71294C110.914 1.71941 110.828 1.75331 110.954 1.75529C113.241 1.78839 113.302 1.68187 114.609 1.6458C115.916 1.60973 117.935 1.68326 118.346 1.70445C119.421 1.75927 117.522 1.72788 117.464 1.73326C116.78 1.79728 118.253 1.78626 119.378 1.79167C119.541 1.89611 121.114 1.88984 120.544 1.79686C120.479 1.7867 119.604 1.79644 119.378 1.79167C120.366 1.6892 122.095 1.67608 124.005 1.77183C124.899 1.81671 124.054 1.86904 126.77 1.8499C128.002 1.84126 127.526 1.76934 128.614 1.74974C131.099 1.70501 134.328 1.77209 136.89 1.76152C137.82 1.75768 136.914 1.71832 137.55 1.71434C139.236 1.70366 140.724 1.73319 142.417 1.71806C142.571 1.71664 142.196 1.67544 142.722 1.67491C146.715 1.67012 150.192 1.69652 154.361 1.69725C156.375 1.69758 159.977 1.67486 162.063 1.67943C165.68 1.6871 170.129 1.74702 173.218 1.73247C175.233 1.72315 174.791 1.68193 175.655 1.65385C177.321 1.59942 180.27 1.69692 180.667 1.71202C180.679 1.71252 178.945 1.72224 179.87 1.74339C180.408 1.78747 180.648 1.71221 180.667 1.71202C180.928 1.72177 184.392 1.73113 185.079 1.72325C185.453 1.71894 185.244 1.6799 185.439 1.67839C190.071 1.64344 194.71 1.63352 199.408 1.65178C199.491 1.65257 199.366 1.69624 199.561 1.69755C202.28 1.71697 204.021 1.66354 206.264 1.63182C208.507 1.60011 210.285 1.61073 211.613 1.68571C213.305 1.67627 215.733 1.70942 217.13 1.72954C218.527 1.74965 218.722 1.66463 218.844 1.66295C222.678 1.60915 224.894 1.65782 228.872 1.66539C230.763 1.66914 234.514 1.6568 236.561 1.64751C238.179 1.64002 239.154 1.65994 240.645 1.6472C240.847 1.6455 240.643 1.60764 240.704 1.60619C242.368 1.56089 241.569 1.65344 241.912 1.66997C243.158 1.73007 243.927 1.76208 246.058 1.73381C246.55 1.72733 247.981 1.59408 248.877 1.58629C250.042 1.5764 249.603 1.62416 250.822 1.61259C250.927 1.61165 250.905 1.58218 251.658 1.58348C255.152 1.58912 258.962 1.60627 262.593 1.60332C263.089 1.60303 262.453 1.55629 263.17 1.5551C266.533 1.54956 270.218 1.55129 273.494 1.57317C274.301 1.5787 273.795 1.61142 273.97 1.62114C275.045 1.67993 276.569 1.59451 276.821 1.59288C282.819 1.55183 287.41 1.62914 293.523 1.59233C293.856 1.59017 296.418 1.49859 297.561 1.57713C297.639 1.58236 298.77 1.66271 299.769 1.60777C299.832 1.60433 299.127 1.56297 300.357 1.56718C301.586 1.57139 303.565 1.54377 305.255 1.58922C305.79 1.60354 307.055 1.68369 308.651 1.6198C308.755 1.61534 311.219 1.47086 312.099 1.57054C312.241 1.58695 312.092 1.69243 313.997 1.63835C314.361 1.62787 313.7 1.60434 314.659 1.58964C316.128 1.567 318.075 1.59525 319.881 1.54826C320.196 1.53994 321.537 1.46835 322.612 1.52269C322.781 1.5312 322.461 1.56642 323.029 1.57036C325.729 1.58926 328.558 1.56571 331.3 1.59007C332.271 1.59863 331.775 1.65556 332.787 1.67082C333.8 1.68607 335.84 1.70074 336.899 1.67473C337.959 1.6487 336.801 1.55796 338.389 1.5507C338.593 1.54977 338.796 1.54892 339 1.54813L338.548 2C338.547 1.66653 338.546 1.3332 338.545 1L339 1.45518C332.644 1.47282 326.335 1.427 319.979 1.41982C318.957 1.41865 319.805 1.45112 318.298 1.45174C312.744 1.45415 303.156 1.48459 298.337 1.4156C294.475 1.36035 299.335 1.31828 296.384 1.29579C294.96 1.28507 293.42 1.39055 293.076 1.39388C289.718 1.42761 287.385 1.38088 284.363 1.39522C283.738 1.39819 284.351 1.44095 283.819 1.44301C282.005 1.45042 280.098 1.43134 278.365 1.43483C277.587 1.43649 277.73 1.46915 277.015 1.46663C275.302 1.46098 273.788 1.44725 272.119 1.41664C271.966 1.41385 272.992 1.37323 271.726 1.37172C269.675 1.36939 267.13 1.3392 264.771 1.37038C264.071 1.37976 264.043 1.45439 262.539 1.40285C262.223 1.39208 262.626 1.30247 260.873 1.3799C260.578 1.39277 257.634 1.49721 256.189 1.42989C255.808 1.41217 254.835 1.33883 253.993 1.35036C253.879 1.3522 254.337 1.39229 253.639 1.3962C251.181 1.40928 248.605 1.405 246.079 1.41756C245.405 1.42099 246.409 1.46247 245.404 1.46626C242.64 1.47675 239.189 1.46619 236.486 1.4532C235.49 1.44834 236.179 1.41397 236.106 1.41023C234.94 1.34941 234.251 1.43151 233.864 1.4363C231.457 1.46496 229.624 1.42639 227.405 1.4366C226.793 1.43931 227.227 1.47846 227.105 1.48195C225.842 1.51605 226.783 1.44575 225.983 1.438C223.742 1.41606 221.243 1.41921 218.977 1.42421C218.144 1.42611 219.08 1.4715 218.332 1.47267C213.91 1.48049 209.313 1.47615 204.997 1.45113C204.185 1.44633 204.696 1.41138 204.526 1.4034C203.359 1.34755 201.648 1.42373 201.255 1.43099C199.465 1.46412 198.77 1.43321 197.189 1.43898C189.467 1.4677 179.933 1.44723 172.644 1.43459C163.146 1.41831 155.776 1.38506 146.718 1.39369C146.143 1.3942 146.723 1.4407 146.227 1.44173C139.82 1.45294 133.513 1.43477 127.093 1.4482C126.566 1.44922 127.326 1.4933 126.48 1.49641C124.746 1.50312 122.549 1.50072 120.795 1.48665C119.94 1.47987 121.087 1.44204 120.226 1.43599C118.222 1.42181 116.073 1.41867 114.014 1.42574C113.138 1.42884 114.46 1.47392 113.321 1.47444C105.562 1.47891 97.9429 1.48668 90.1029 1.4283C89.5654 1.42429 89.0938 1.33267 87.951 1.35024C87.8649 1.37566 87.8696 1.40558 87.832 1.43276C76.5379 1.4474 65.3591 1.41563 54.0333 1.41072C53.5558 1.41053 54.3811 1.45907 53.4566 1.45894C48.1058 1.45822 42.9099 1.47167 37.4366 1.42342C36.8936 1.4187 37.1722 1.33329 35.5718 1.34621C35.2896 1.34856 32.8793 1.35996 32.2561 1.3785C32.1715 1.38129 32.6112 1.42116 31.8345 1.42232C27.321 1.42837 22.5911 1.41927 18.0854 1.39491C17.3582 1.39091 18.1326 1.34845 17.6147 1.34523C13.9407 1.3227 9.94444 1.35497 6.43378 1.31642C4.08387 1.29047 4.95388 1.21709 3.70516 1.14485C3.52855 1.13466 2.07341 1.13305 1.99816 1.09102C1.80497 0.98534 2.50979 0.869621 2.22059 0.756976C2.15949 0.732713 0.210682 0.758846 1.3645 0.700214C1.44511 0.69629 2.858 0.67683 3.20599 0.65694C3.44828 0.643188 3.01167 0.600447 3.50601 0.582843C4.00031 0.565256 4.54349 0.601084 5.36303 0.580402C6.1822 0.559464 5.82201 0.510841 7.45799 0.505085ZM223.42 1.81944C224.713 1.86027 224.904 1.71072 223.505 1.7465C223.437 1.74841 223.353 1.81744 223.42 1.81944ZM66.9159 1.84306C68.6071 1.90902 69.7641 1.81203 68.5712 1.76109C67.3784 1.7102 66.4008 1.82307 66.9159 1.84306ZM49.3803 1.89122C51.3567 1.94323 51.6679 1.73116 49.5511 1.77403C49.428 1.77645 49.2648 1.8882 49.3803 1.89122ZM9.49605 1.12428C9.47819 1.1223 8.43218 1.12036 8.40718 1.12233C7.8502 1.16983 9.94179 1.17366 9.49605 1.12428ZM31.9793 1.94365C32.5962 1.97233 34.3727 1.93922 33.6061 1.90355C32.989 1.87485 31.2108 1.90796 31.9793 1.94365ZM290.896 1.97905C290.916 1.98128 291.666 1.98328 291.651 1.97069C291.6 1.93011 290.556 1.94156 290.896 1.97905ZM2.40412 1.94609C6.77372 1.95407 9.42305 2.12925 4.6646 2.10948C3.80292 2.1059 6.52176 2.05362 5.42499 2.03782C3.74953 2.0138 2.54408 2.08649 1 2.07687C0.956518 2.07693 0.923197 2.04348 0.923133 2C0.925038 1.69453 0.930164 1.37582 0.939898 1.03758C0.945323 0.851129 0.974343 1.38775 1.00178 2C1.60505 1.97111 2.28419 1.94555 2.41186 1.94584C2.40931 1.94593 2.40674 1.94601 2.40412 1.94609ZM224.165 1.99907C224.191 2.00104 225.229 2.00292 225.254 2.00096C225.816 1.95348 223.724 1.94968 224.165 1.99907ZM334.654 2.07152C334.712 2.07573 337.121 2.07967 337.199 2.07579C338.456 1.99815 333.586 1.98995 334.654 2.07152ZM154.25 2.1085C153.117 2.15627 151.762 2.16189 150.859 2.10191C151.985 2.10509 153.118 2.10556 154.25 2.1085Z" fill="#6A686D"/>
</svg>
