<svg width="155" height="172" viewBox="0 0 155 172" fill="none" xmlns="http://www.w3.org/2000/svg">
<path d="M2 18C2 9.16344 9.16344 2 18 2H137C145.837 2 153 9.16344 153 18V154C153 162.837 145.837 170 137 170H18C9.16344 170 2 162.837 2 154V18Z" fill="#FFFFFF"/>
<!--<path d="M12.8384 4.42887C9.90894 5.48955 6.68167 8.25396 5.20723 11.0091C4.7393 11.8616 4.89311 11.3889 4.59142 11.9935C4.02265 13.1924 3.70741 14.3946 3.46417 15.6816C3.38709 16.1096 3.34087 15.5543 3.26625 16.0068C3.16199 16.6745 3.11057 17.3352 3.10531 18C3.09119 19.949 3.10319 21.8665 3.08356 23.8815C2.95147 37.4231 2.90419 50.7341 2.84681 64.4413C2.82799 68.9609 2.71369 74.455 2.76368 79.1233C2.76963 79.6683 2.88018 79.3434 2.88929 79.4471C3.02878 81.0733 2.8056 80.5326 2.77595 81.5944C2.65887 85.8087 2.64869 90.495 2.69135 94.5507C2.70983 96.2762 2.92941 94.5462 2.80616 96.2835C2.79783 96.4041 2.68044 95.9663 2.66791 96.4395C2.63975 97.5126 2.66074 99.5485 2.65143 100.38C2.63291 101.983 2.6341 102.248 2.63276 103.764C2.62991 105.837 2.57155 108.302 2.59815 110.525C2.60418 111 2.72452 110.372 2.745 111.129C2.76545 111.886 2.75524 113.891 2.72687 114.566C2.69849 115.242 2.6039 114.954 2.58222 115.074C2.39923 116.058 2.65267 118.376 2.65894 118.675C2.76574 124.114 2.62136 128.778 2.62177 133.883C2.62239 137.759 2.67006 141.903 2.66352 145.591C2.65791 148.576 2.62601 151.252 2.60965 154C2.60224 155.249 2.74499 156.515 3.07088 157.789C3.18165 158.208 3.18687 157.684 3.32771 158.19C4.84265 163.572 9.46006 167.876 14.9356 169.043C15.4832 169.159 14.7487 169.147 15.2996 169.266C16.0983 169.431 17.0244 169.557 18 169.584C21.2391 169.674 24.9198 169.72 26.5401 169.307C28.9586 169.328 31.8946 169.35 34.0582 169.459C35.4532 169.529 34.0983 169.664 35.8119 169.606C36.1984 169.594 35.6958 169.475 36.2754 169.465C38.7157 169.421 41.3817 169.46 43.7958 169.399C44.2868 169.386 44.1527 169.28 44.2918 169.26C45.4611 169.106 47.4076 169.362 47.8319 169.38C51.0632 169.519 53.4229 169.464 56.433 169.468C57.1315 169.469 56.3058 169.326 56.978 169.322C60.4641 169.301 64.0753 169.313 67.4888 169.377C68.2481 169.391 67.5498 169.513 67.9127 169.526C69.5125 169.582 69.8672 169.353 71.4015 169.402C71.725 169.412 71.5428 169.516 71.6018 169.528C72.5253 169.707 73.3277 169.453 73.5652 169.447C76.5698 169.371 78.4903 169.636 81.393 169.599C81.7402 169.594 80.9572 169.462 81.9333 169.457C88.4363 169.42 95.314 169.457 101.751 169.562C102.752 169.578 102.037 169.677 102.1 169.689C103.127 169.88 103.791 169.624 104.117 169.615C106.692 169.546 109.096 169.76 110.846 169.456C119.594 169.54 128.311 169.447 137 169.548C139.081 169.574 141.167 169.194 143.114 168.425C143.239 168.375 143.065 168.586 143.316 168.484C146.267 167.1 145.606 167.134 147.114 165.659C147.487 165.289 148.814 164.313 148.915 164.198C149.317 163.843 149.105 164.385 149.232 164.258C150.25 163.155 149.651 163.004 150.621 161.326C150.651 161.272 150.629 161.553 150.717 161.414C150.993 160.979 151.172 160.501 151.403 160.053C151.905 159.026 152.376 158.709 152.566 156.922C152.568 156.696 152.235 156.972 152.429 155.245C152.449 155.023 152.482 154.561 152.482 154C152.484 152.771 152.486 151.105 152.502 150.498C152.525 149.608 152.638 150.219 152.642 150.156C152.792 147.758 152.854 148.667 153.075 147.466C153.296 146.264 152.77 146.598 152.711 146.108C152.653 145.617 152.776 143.859 152.819 143.427C152.862 142.995 152.933 143.534 152.958 143.15C153.116 140.604 152.697 142.033 152.613 141.194C152.416 139.216 152.806 137.676 152.844 135.865C152.854 135.375 152.765 135.775 152.757 135.339C152.725 133.611 152.847 132.572 152.735 130.606C152.717 130.284 152.483 128.695 152.655 127.667C152.68 127.521 152.777 127.935 152.799 127.199C152.831 126.099 152.853 124.117 152.82 122.934C152.796 122.061 152.636 123.062 152.686 121.963C152.708 121.475 152.802 122.38 152.835 121.462C152.869 120.55 152.865 118.216 152.862 117.328C152.859 116.442 152.737 116.927 152.729 116.856C152.682 116.422 152.624 114.721 152.624 114.571C152.609 106.989 152.814 99.9972 152.746 92.6152C152.741 92.0359 152.613 92.4218 152.611 92.3334C152.557 90.3501 152.897 91.9138 153.011 90.5284C152.752 90.7286 152.799 89.9108 152.77 88.5138C152.756 87.8406 152.656 88.2072 152.645 88.1458C152.492 87.1475 152.69 86.4523 152.73 86.2733C152.879 85.6121 152.703 84.8926 152.802 84.4427C152.901 83.993 153.047 85.0279 153.045 83.6881C152.952 83.3124 152.709 84.3071 152.67 83.2898C152.521 79.4518 152.711 72.2876 152.731 69.2016C152.751 66.1219 152.734 65.1271 152.768 63.3325C152.828 60.0909 152.648 61.2789 152.565 59.2661C152.483 57.2474 152.927 58.2287 153.022 57.9385C153.117 57.6537 153.019 57.3426 153.072 56.9883C153.124 56.6351 153.189 57.3997 153.209 56.5691C153.228 55.738 153.059 53.4656 152.959 53.1711C152.748 52.5482 152.526 53.5722 152.604 51.3731C152.608 51.2466 152.725 51.6571 152.737 51.1728C152.827 47.3261 152.832 43.33 152.912 39.4881C152.923 38.9599 153.053 39.4322 153.06 39.1248C153.144 35.9226 152.925 37.0672 152.681 35.3122C153.005 35.7063 153.203 34.7357 153.205 32.3054C153.206 30.8445 153.065 31.096 152.965 30.1511C152.935 29.8676 153.032 28.8339 152.966 28.6466C152.749 28.0289 152.505 29.0026 152.602 26.4969C152.607 26.387 152.726 26.737 152.733 26.3571C152.78 23.9018 152.553 23.6079 152.525 20.9538C152.517 20.1531 152.532 19.1124 152.556 18C152.608 16.267 152.305 14.3555 151.85 13.0007C152.241 12.9317 151.339 10.8499 150.637 10.226C149.902 8.90748 148.87 7.62776 147.833 6.60104C147.474 6.24877 147.786 6.39707 147.748 6.34537C147.142 5.54574 146.443 5.34345 146.177 5.16274C143.249 3.22 140.372 2.16601 137 2.30865C136.991 2.30914 136.981 2.30963 136.972 2.31013C136.85 2.31664 136.653 2.56936 135.735 2.38483C135.676 2.37211 136.809 2.25713 135.195 2.24824C133.58 2.23933 130.536 2.10385 128.294 2.22096C127.751 2.24915 126.379 2.45431 125.278 2.29401C125.131 2.27225 125.292 2.19977 125.08 2.15943C124.395 2.03091 124.021 2.28635 123.217 2.06934C122.412 1.85234 120.738 1.68983 118.477 1.83955C118.405 1.8439 117.87 2.04636 117.159 2.04316C116.024 2.03788 114.413 1.9957 113.228 1.99702C112.66 1.99772 113.023 2.12344 112.925 2.12574C109.109 2.19619 106.394 2.08411 102.307 2.03547C101.558 2.0263 99.4044 2.19774 97.9538 2.0622C96.3611 1.91383 97.9978 1.29663 94.3369 1.44368C92.8603 1.50249 90.9909 2.28552 88.3374 1.87983C83.191 1.98036 78.4317 1.77273 73.271 1.91627C73.0389 1.92263 72.3051 2.14117 71.7595 2.13819C70.9495 2.13335 70.5049 2.03121 69.9265 2.02448C67.5031 1.99372 65.2854 2.08111 62.9488 2.06751C62.0617 2.06257 62.3719 1.95696 61.3139 1.95106C60.2565 1.94525 59.5514 2.08433 58.1184 2.01716C57.0363 1.96596 55.9542 1.6817 54.5178 1.64857C54.463 1.92896 53.4765 1.92318 51.723 1.9972C51.3859 2.01156 51.7474 2.10915 51.5879 2.12098C50.939 2.17128 50.3385 2.0904 49.7224 2.14515C49.5725 2.1583 49.5654 2.25406 49.4429 2.27021C48.4009 2.41123 46.6844 2.19584 46.3895 2.15833C45.2596 2.01591 44.7316 2.14045 43.8649 2.08436C42.9996 2.02828 44.2934 1.95817 43.2826 1.92414C41.1876 1.85375 38.4956 1.86922 36.3678 1.86482C35.5188 1.86365 36.098 1.99147 35.9765 1.99427C34.221 2.02669 32.4457 1.89073 31.4722 2.14533C30.255 1.48702 30.4136 2.20919 27.9042 2.0774C27.7065 2.06674 27.4551 1.75543 28.214 1.70973C28.9728 1.66407 30.1236 1.76138 31.1765 1.69013C31.4258 1.67342 32.8541 1.3817 33.049 1.36402C34.5755 1.22592 34.7918 1.69113 34.8726 1.71668C35.7885 1.99243 37.5338 1.67816 37.9935 1.65644C40.0962 1.55694 41.8826 1.62236 43.6413 1.55134C44.7916 1.50544 44.9041 1.20071 45.8073 1.21003C48.8098 1.24086 49.8578 1.66597 52.6872 1.29737C53.2939 1.21876 52.691 0.885697 54.8648 1.14759C55.0014 1.16411 56.6154 1.40369 57.5478 1.25215C57.6649 1.23304 57.6613 1.13597 57.8157 1.12782C58.8508 1.07507 59.5411 1.1524 60.6687 1.11537C61.7962 1.07833 63.152 1.02312 64.4394 1.05604C65.2152 1.07573 66.2107 1.25658 66.5821 1.30085C67.6307 1.4284 68.7551 1.21928 69.4048 1.37373C70.06 1.52896 68.7792 1.7647 70.4971 1.865C70.5607 1.61281 70.7069 1.35397 70.8092 1.10035C74.5742 1.10923 78.2785 1.19078 82.056 1.17964C82.5243 1.178 82.0454 1.04243 82.5474 1.03718C84.6656 1.01564 86.5157 1.11229 88.7123 1.0738C90.4127 1.04349 92.2771 0.899946 94.0551 0.863782C95.1411 1.15235 97.7794 1.05439 99.696 1.08076C100.367 1.08987 100.322 1.16695 100.8 1.19209C102.601 1.28508 101.757 1.03007 102.251 0.989941C104.369 0.818666 104.551 1.39586 107.049 1.3816C107.181 1.38104 108.799 1.07337 109.021 1.05421C110.437 0.929274 109.256 1.1613 110.142 1.18403C111.759 1.22558 112.883 1.29905 114.781 1.20893C115.334 1.18224 116.662 0.990474 117.736 1.13881C117.878 1.15823 117.8 1.25993 117.913 1.26588C119.973 1.36516 120.027 1.04561 121.204 0.93739C122.382 0.829192 124.2 1.04978 124.57 1.11335C125.538 1.27782 123.828 1.18364 123.776 1.19978C123.16 1.39185 124.486 1.35878 125.499 1.37501C125.646 1.68833 127.063 1.66952 126.549 1.39057C126.491 1.36011 125.703 1.38932 125.499 1.37501C126.388 1.0676 127.946 1.02823 129.666 1.3155C130.471 1.45014 129.71 1.60712 132.155 1.54969C133.265 1.52377 132.836 1.30803 133.816 1.24922C134.786 1.19105 135.882 1.1959 137 1.21749C138.537 1.24178 140.086 1.5261 141.408 1.87209C142.253 2.10242 141.466 1.7492 142.046 1.91137C143.585 2.36728 144.834 3.05527 146.203 3.88805C146.327 3.96504 146.097 3.66318 146.516 3.94116C149.657 6.10151 151.766 8.92028 153.05 12.6672C153.507 13.98 153.966 16.1363 153.958 18C153.963 18.6656 153.965 19.2861 153.962 19.8033C153.939 23.0599 153.759 27.0663 153.803 29.8483C153.831 31.6629 153.954 31.2648 154.038 32.0423C154.202 33.5426 153.909 36.1983 153.864 36.5559C153.862 36.5668 153.833 35.0054 153.77 35.8386C153.638 36.3229 153.863 36.5383 153.864 36.5559C153.835 36.7907 153.807 39.9098 153.83 40.5292C153.843 40.8657 153.96 40.6775 153.965 40.8529C154.07 45.0237 154.099 49.2017 154.045 53.4319C154.042 53.5063 153.911 53.3942 153.907 53.5693C153.849 56.0183 154.009 57.5863 154.105 59.6061C154.2 61.6255 154.168 63.2271 153.943 64.4225C153.971 65.9462 153.872 68.1323 153.811 69.3903C153.751 70.6482 154.006 70.8237 154.011 70.9344C154.173 74.3867 154.027 76.3824 154.004 79.964C153.993 81.6668 154.03 85.0445 154.057 86.8881C154.08 88.3452 154.02 89.2231 154.058 90.5657C154.064 90.7473 154.177 90.5638 154.181 90.6192C154.317 92.1176 154.04 91.3975 153.99 91.7069C153.81 92.8285 153.714 93.5214 153.799 95.4403C153.818 95.8829 154.218 97.1721 154.241 97.9789C154.271 99.0279 154.128 98.632 154.162 99.7303C154.165 99.8243 154.253 99.8047 154.25 100.483C154.233 103.629 154.181 107.06 154.19 110.33C154.191 110.776 154.331 110.204 154.335 110.849C154.351 113.877 154.346 117.196 154.281 120.146C154.264 120.873 154.166 120.417 154.137 120.575C153.96 121.543 154.216 122.915 154.221 123.142C154.345 128.543 154.113 132.677 154.223 138.182C154.229 138.482 154.504 140.789 154.269 141.818C154.253 141.888 154.012 142.907 154.177 143.807C154.187 143.863 154.311 143.228 154.298 144.336C154.286 145.443 154.369 147.225 154.232 148.747C154.189 149.229 153.949 150.367 154.141 151.805C154.15 151.872 154.38 153.053 154.393 154C154.398 154.396 154.357 154.749 154.261 154.981C154.187 155.118 153.957 154.953 153.859 156.784C153.829 157.135 154.017 156.518 153.888 157.439C153.679 158.858 152.999 160.635 152.276 162.244C152.161 162.524 151.676 163.789 150.893 164.53C150.772 164.645 150.881 164.336 150.531 164.764C148.861 166.783 146.693 168.59 144.238 169.64C143.366 169.999 143.743 169.659 142.821 169.964C141.901 170.279 140.002 170.69 139.002 170.859C137.999 171.033 139.14 171.228 137.597 171.338C137.399 171.347 137.2 171.353 137 171.356C130.971 171.433 124.995 171.282 118.972 171.259C118.051 171.256 118.814 171.353 117.458 171.355C112.457 171.362 103.822 171.454 99.4824 171.247C96.0053 171.081 100.381 170.955 97.724 170.887C96.4418 170.855 95.0547 171.172 94.7452 171.182C91.7216 171.283 89.6202 171.143 86.8988 171.186C86.3368 171.195 86.888 171.323 86.4097 171.329C84.776 171.351 83.0589 171.294 81.4978 171.304C80.7974 171.309 80.9265 171.407 80.2821 171.4C78.74 171.383 77.3765 171.342 75.8732 171.25C75.7362 171.242 76.6601 171.12 75.5192 171.115C73.6728 171.108 71.3809 171.018 69.2565 171.111C68.6262 171.139 68.6015 171.363 67.2466 171.209C66.9624 171.176 67.325 170.907 65.7467 171.14C65.4813 171.178 62.83 171.492 61.5289 171.29C61.1856 171.236 60.3095 171.016 59.5515 171.051C59.4487 171.057 59.8605 171.177 59.2325 171.189C57.0188 171.228 54.6989 171.215 52.4248 171.253C51.8175 171.263 52.722 171.387 51.8169 171.399C49.3279 171.43 46.2204 171.399 43.7865 171.36C42.8891 171.345 43.5094 171.242 43.4441 171.231C42.3941 171.048 41.7733 171.295 41.4248 171.309C39.2575 171.395 37.6071 171.279 35.6093 171.31C35.058 171.318 35.4489 171.435 35.3391 171.446C34.201 171.548 35.0488 171.337 34.3283 171.314C32.3101 171.248 30.0601 171.258 28.0191 171.273C27.2693 171.278 28.112 171.414 27.4391 171.418C24.3236 171.436 21.1116 171.432 18 171.394C17.0589 171.383 16.1287 171.294 15.2261 171.133C14.4454 170.984 14.9574 170.965 14.7992 170.913C13.7209 170.562 12.0927 170.254 11.7252 170.119C10.0719 169.55 9.51076 169.124 8.22036 168.293C3.82221 165.493 0.512454 159.635 0.659328 154C0.670498 151.689 0.684494 149.463 0.696241 147.431C0.745072 138.878 0.844824 132.241 0.818921 124.085C0.817406 123.567 0.677915 124.089 0.674818 123.642C0.641191 117.873 0.695698 112.193 0.655409 106.412C0.65235 105.938 0.52011 106.622 0.510756 105.86C0.49064 104.299 0.497828 102.32 0.540053 100.741C0.560397 99.971 0.67387 101.004 0.69203 100.229C0.734573 98.4237 0.743991 96.4887 0.722791 94.6346C0.713481 93.8455 0.578234 95.036 0.576674 94.0104C0.563256 87.0241 0.539963 80.1628 0.715101 73.1028C0.727129 72.6189 1.002 72.1942 0.949292 71.1651C0.873007 71.0876 0.783271 71.0918 0.701734 71.058C0.657811 60.8877 0.753102 50.8213 0.767835 40.6225C0.768425 40.1925 0.622782 40.9356 0.623182 40.1031C0.625335 35.2847 0.584988 30.6058 0.729749 25.6772C0.743906 25.1882 1.00013 25.4391 0.961377 23.998C0.954306 23.7438 0.920135 21.5734 0.864514 21.0122C0.856125 20.936 0.736531 21.332 0.733045 20.6326C0.729158 19.7627 0.727354 18.8839 0.727635 18C0.710086 14.4963 1.8825 10.929 3.90658 8.16443C4.32451 7.59969 3.99186 8.28007 4.29211 7.88349C6.40626 5.07351 9.63719 2.70318 12.896 1.833C15.0731 1.3028 14.3309 1.75511 15.5075 1.75328C15.6706 1.7446 17.0096 1.61687 17.0861 1.75218C17.2741 2.05795 16.6718 2.44423 16.95 2.76457C17.0083 2.81456 18.6747 2.71477 17.6888 2.9025C17.6187 2.9049 16.4263 3.03413 16.1436 3.14304C15.9473 3.20984 16.3241 3.28941 15.9242 3.39625C15.5278 3.5067 15.0613 3.47391 14.4144 3.69762C13.7762 3.93908 14.0898 3.96404 12.8384 4.42887ZM153.542 75.0544C153.419 76.2192 153.868 76.3911 153.76 75.1313C153.755 75.0703 153.548 74.9943 153.542 75.0544ZM78.2574 1.52919C79.7802 1.72707 80.8222 1.4361 79.748 1.28328C78.6739 1.13061 77.7935 1.4692 78.2574 1.52919ZM62.4667 1.67365C64.2464 1.82968 64.5266 1.19348 62.6204 1.32209C62.5096 1.32936 62.3627 1.6646 62.4667 1.67365ZM10.4645 3.46058C10.4789 3.45213 11.3495 3.03965 11.3711 3.03112C11.7804 2.67806 10.0209 3.50472 10.4645 3.46058ZM46.7971 1.83094C47.3527 1.917 48.9524 1.81766 48.2621 1.71064C47.7064 1.62455 46.1052 1.72389 46.7971 1.83094ZM153.063 135.816C153.056 135.834 153.05 136.51 153.088 136.496C153.21 136.45 153.175 135.51 153.063 135.816ZM20.1649 1.83827C24.0997 1.86221 26.4854 2.38774 22.2004 2.32844C21.4245 2.31771 23.8728 2.16085 22.8852 2.11347C21.078 2.02716 19.878 2.35712 18.0338 2.18031C17.7 2.14794 19.9404 1.83573 20.1719 1.83753C20.1695 1.83778 20.1672 1.83802 20.1649 1.83827ZM153.003 75.7252C152.997 75.7485 152.991 76.6833 152.997 76.7057C153.14 77.2119 153.151 75.3287 153.003 75.7252ZM140.824 169.319C140.778 169.354 138.671 169.709 138.596 169.693C137.503 170.115 141.836 169.411 140.824 169.319ZM151.848 12.963C151.397 12.0593 150.884 11.0092 150.639 10.23C151.124 11.098 151.536 12.0145 151.848 12.963Z" fill="#323133"/>-->
<g clip-path="url(#clip0_153_9023)">
<g filter="url(#filter0_f_153_9023)">
</g>
</g>
<defs>
<filter id="filter0_f_153_9023" x="63.2925" y="49.7708" width="29.5659" height="34.2371" filterUnits="userSpaceOnUse" color-interpolation-filters="sRGB">
<feFlood flood-opacity="0" result="BackgroundImageFix"/>
<feBlend mode="normal" in="SourceGraphic" in2="BackgroundImageFix" result="shape"/>
<feGaussianBlur stdDeviation="2.5" result="effect1_foregroundBlur_153_9023"/>
</filter>
<clipPath id="clip0_153_9023">
<rect width="30" height="29" fill="white" transform="translate(62.5 53.5)"/>
</clipPath>
</defs>
</svg>
