<svg width="103" height="41" viewBox="0 0 103 41" fill="none" xmlns="http://www.w3.org/2000/svg">
<path d="M2 20.5C2 10.2827 10.2827 2 20.5 2H82.5C92.7173 2 101 10.2827 101 20.5C101 30.7173 92.7173 39 82.5 39H20.5C10.2827 39 2 30.7173 2 20.5Z" fill="white"/>
<path d="M18.3975 3.61321C17.1717 3.79186 15.5887 4.14162 14.4138 4.54084C14.0457 4.66474 14.1993 4.51916 13.944 4.60567C13.4443 4.77904 13.0157 5.02239 12.5365 5.23089C12.3775 5.30031 12.5098 5.08805 12.3436 5.16436C11.4321 5.58863 10.6468 6.13456 9.8264 6.7364C5.76778 9.70529 3.15066 14.4958 2.86718 19.644C2.851 19.9187 2.83814 20.2049 2.83114 20.5C2.78798 22.0087 2.94159 23.7129 3.3732 25.1275C3.43305 25.3245 3.5074 25.1766 3.52648 25.2119C3.82787 25.7578 3.55791 25.6247 3.6511 26.0167C4.02655 27.5665 4.81948 29.1922 5.71938 30.4372C6.10537 30.9651 5.90989 30.3035 6.18896 30.9073C6.20914 30.9491 6.01651 30.8843 6.11214 31.0365C6.32699 31.3844 6.83008 31.973 7.03329 32.2145C7.42246 32.6827 7.49359 32.7555 7.89788 33.1659C8.45196 33.7243 9.12453 34.3868 9.82235 34.8703C9.971 34.9726 9.85062 34.7351 10.0936 34.8873C10.3349 35.0423 10.9573 35.4704 11.1623 35.6256C11.3654 35.7836 11.2239 35.8073 11.2514 35.8496C11.4774 36.2075 12.3839 36.4055 12.4864 36.4446C14.3741 37.2658 16.0353 37.9166 17.963 38.1997C18.7883 38.3169 19.6505 38.3629 20.5 38.3504C21.1767 38.3411 21.8428 38.3336 22.4749 38.3365C24.2038 38.3447 25.6691 38.4099 27.3486 38.3987C27.5259 38.3977 27.3182 38.2562 27.5347 38.2546C29.8348 38.2382 32.1189 38.2536 34.409 38.3491C34.6387 38.3588 34.3427 38.4831 34.5722 38.5002C35.9771 38.6023 38.2 38.8475 39.0344 38.3066C39.986 38.3278 41.1414 38.3496 41.9927 38.4586C42.5417 38.5288 42.0085 38.6641 42.6828 38.6064C42.8349 38.5935 42.6371 38.475 42.8652 38.4647C43.8254 38.4213 44.8745 38.4598 45.8244 38.3986C46.0177 38.3858 45.9649 38.2796 46.0196 38.2605C46.4797 38.1056 47.2457 38.3616 47.4127 38.3802C48.6841 38.519 49.6127 38.4644 50.7971 38.4678C51.072 38.4686 50.7471 38.326 51.0116 38.3216C52.3834 38.3012 53.8044 38.3135 55.1476 38.3768C55.4464 38.3912 55.1716 38.5127 55.3144 38.5258C55.9439 38.5821 56.0835 38.3526 56.6872 38.4022C56.8145 38.4124 56.7428 38.5164 56.766 38.5278C57.1294 38.7072 57.4451 38.4531 57.5386 38.4474C58.7209 38.3708 59.4766 38.6361 60.6188 38.5985C60.7555 38.5937 60.4473 38.4621 60.8314 38.4568C63.3903 38.4204 66.0967 38.4566 68.6296 38.5619C69.0234 38.5781 68.7423 38.677 68.7671 38.6891C69.171 38.8796 69.4323 38.6244 69.5607 38.6148C70.5737 38.5456 71.5201 38.7596 72.2084 38.4557C75.6509 38.5403 79.0808 38.4471 82.5 38.5477C83.3254 38.5723 84.1441 38.5542 84.9722 38.496C85.0253 38.4919 84.9477 38.6294 85.054 38.6206C86.3355 38.4913 86.0628 38.3276 86.8204 37.91C87.0071 37.8056 87.7031 37.9088 87.7653 37.9094C87.9877 37.923 87.8349 38.1651 87.9065 38.1591C88.5046 38.0933 88.2222 37.5421 88.9413 37.274C88.9643 37.2662 88.91 37.4089 88.9748 37.3962C89.177 37.3567 89.3463 37.2397 89.5436 37.1989C89.9948 37.103 90.2768 37.3117 90.8291 36.8385C90.8963 36.7761 90.6228 36.5331 91.2339 36.218C91.4831 36.0996 92.5126 35.4531 92.7992 35.2665C93.0909 35.0885 92.9652 35.3155 92.9878 35.3057C93.8251 34.8809 93.5773 35.135 94.0869 35.0191C94.5961 34.8909 94.1584 34.5666 94.2658 34.4005C94.3746 34.2363 94.9624 33.8735 95.1129 33.7851C95.2644 33.6998 95.1618 33.8973 95.2873 33.8107C96.112 33.2203 95.4134 33.3182 95.5813 33.0289C95.9597 32.3455 96.6345 32.1515 97.0987 31.6091C97.2224 31.4629 97.0577 31.5338 97.1527 31.3932C97.5234 30.836 97.8549 30.5672 98.1561 29.8554C98.2074 29.7379 98.3083 29.0948 98.6392 28.8228C98.6869 28.7838 98.7003 28.9721 98.8497 28.7264C99.0749 28.3604 99.413 27.6619 99.5482 27.2204C99.6488 26.8947 99.3606 27.2004 99.5576 26.8198C99.6438 26.6495 99.6109 27.0125 99.7649 26.6885C99.9225 26.3673 100.188 25.4941 100.267 25.1553C100.35 24.8193 100.184 24.9735 100.184 24.9443C100.182 24.7711 100.266 24.1156 100.274 24.0595C100.507 22.8578 100.65 21.6776 100.685 20.5C100.732 18.8667 100.572 17.2402 100.092 15.6419C100.027 15.4266 99.9437 15.6057 99.9325 15.5732C99.6655 14.8555 100.166 15.3384 100.112 14.7845C99.8878 14.9392 99.8408 14.6189 99.6252 14.1199C99.5198 13.8796 99.476 14.0492 99.458 14.0304C99.1783 13.7266 99.2557 13.409 99.265 13.3274C99.3001 13.0313 99.0232 12.8487 99.0381 12.6495C99.0506 12.4484 99.3605 12.7519 99.1273 12.2773C98.9786 12.1874 98.9333 12.6412 98.7218 12.3063C97.9696 11.0295 96.4829 8.69383 95.6217 7.84297C94.798 6.97682 94.4819 6.74867 93.9666 6.27879C93.0096 5.45556 93.2634 5.88396 92.5828 5.50789C91.8914 5.1508 92.4429 4.98552 92.4003 4.84315C92.3562 4.70232 92.1998 4.72057 92.1076 4.60342C92.0149 4.48641 92.3086 4.58709 92.0356 4.40056C91.7626 4.20813 90.8853 3.93323 90.7372 3.97646C90.4244 4.06021 90.6865 4.42418 89.9534 3.9969C89.9107 3.97256 90.1039 3.93158 89.9374 3.84374C88.61 3.14955 87.1104 2.68626 85.6427 2.35552C85.4401 2.31 85.6446 2.21274 85.5262 2.18501C84.2886 1.91881 84.6977 2.20489 84.0021 2.37969C84.1839 2.0746 83.817 1.82288 82.8503 1.79827C82.6902 1.79503 82.5812 1.8052 82.5 1.82255C82.2893 1.8684 82.2671 1.96253 81.9976 2.03474C81.886 2.06477 81.4793 1.96772 81.4055 2.03419C81.1625 2.25146 81.5456 2.49468 80.5597 2.39783C80.5164 2.39323 80.6541 2.2743 80.5047 2.2671C79.5385 2.21995 79.4229 2.44722 78.3785 2.47474C77.5599 2.49633 76.1039 2.35775 75.1718 2.33521C75.1914 1.97139 74.311 2.0547 73.9538 2.30555C73.3489 2.29528 72.6955 2.30946 72.1108 2.27479C71.9096 2.26297 72.0418 2.15763 72.0164 2.14625C71.6273 1.9677 71.3643 2.21175 71.2338 2.22132C69.8186 2.31433 68.6656 2.12936 67.315 2.31013C67.2671 2.31664 67.1894 2.56936 66.8284 2.38483C66.805 2.37211 67.2511 2.25713 66.6157 2.24824C65.9803 2.23933 64.7824 2.10385 63.9003 2.22096C63.6868 2.24915 63.1468 2.45431 62.7135 2.29401C62.6557 2.27225 62.7189 2.19977 62.6356 2.15943C62.3661 2.03091 62.2191 2.28635 61.9024 2.06934C61.5857 1.85234 60.9271 1.68983 60.0374 1.83955C60.0091 1.8439 59.7985 2.04636 59.5187 2.04316C59.0721 2.03788 58.438 1.9957 57.9717 1.99702C57.7484 1.99772 57.8913 2.12344 57.8526 2.12574C56.3513 2.19619 55.2828 2.08411 53.6744 2.03547C53.3796 2.0263 52.5323 2.19774 51.9616 2.0622C51.3349 1.91383 51.9789 1.29663 50.5383 1.44368C49.9573 1.50249 49.2217 2.28552 48.1775 1.87983C46.1525 1.98036 44.2797 1.77273 42.249 1.91627C42.1576 1.92263 41.8689 2.14117 41.6542 2.13819C41.3354 2.13335 41.1605 2.03121 40.9329 2.02448C39.9793 1.99372 39.1067 2.08111 38.1872 2.06751C37.8381 2.06257 37.9602 1.95696 37.5439 1.95106C37.1278 1.94525 36.8503 2.08433 36.2865 2.01716C35.8606 1.96596 35.4349 1.6817 34.8696 1.64857C34.8481 1.92896 34.4599 1.92318 33.7699 1.9972C33.6373 2.01156 33.7795 2.10915 33.7167 2.12098C33.4614 2.17128 33.2251 2.0904 32.9826 2.14515C32.9237 2.1583 32.9209 2.25406 32.8727 2.27021C32.4627 2.41123 31.7872 2.19584 31.6712 2.15833C31.2266 2.01591 31.0188 2.14045 30.6778 2.08436C30.3373 2.02828 30.8464 1.95817 30.4486 1.92414C29.6242 1.85375 28.565 1.86922 27.7277 1.86482C27.3936 1.86365 27.6215 1.99147 27.5737 1.99427C26.8829 2.02669 26.1843 1.89073 25.8013 2.14533C25.3223 1.48702 25.3847 2.20919 24.3973 2.0774C24.3195 2.06674 24.2205 1.75543 24.5192 1.70973C24.8178 1.66407 25.2706 1.76138 25.6849 1.69013C25.783 1.67342 26.345 1.3817 26.4217 1.36402C27.0224 1.22592 27.1075 1.69113 27.1393 1.71668C27.4997 1.99243 28.1865 1.67816 28.3674 1.65644C29.1948 1.55694 29.8977 1.62236 30.5898 1.55134C31.0424 1.50544 31.0867 1.20071 31.4421 1.21003C32.6236 1.24086 33.036 1.66597 34.1493 1.29737C34.388 1.21876 34.1508 0.885697 35.0062 1.14759C35.0599 1.16411 35.695 1.40369 36.0619 1.25215C36.108 1.23304 36.1066 1.13597 36.1673 1.12782C36.5747 1.07507 36.8463 1.1524 37.29 1.11537C37.7337 1.07833 38.2672 1.02312 38.7737 1.05604C39.079 1.07573 39.4707 1.25658 39.6169 1.30085C40.0295 1.4284 40.472 1.21928 40.7276 1.37373C40.9854 1.52896 40.4814 1.7647 41.1575 1.865C41.1825 1.61281 41.24 1.35397 41.2803 1.10035C42.7617 1.10923 44.2194 1.19078 45.7058 1.17964C45.8901 1.178 45.7016 1.04243 45.8992 1.03718C46.7327 1.01564 47.4607 1.11229 48.3251 1.0738C48.9941 1.04349 49.7278 0.899946 50.4274 0.863782C50.8548 1.15235 51.8929 1.05439 52.6471 1.08076C52.9113 1.08987 52.8936 1.16695 53.0815 1.19209C53.7903 1.28508 53.4581 1.03007 53.6524 0.989941C54.4861 0.818666 54.5575 1.39586 55.5403 1.3816C55.5924 1.38104 56.2289 1.07337 56.3166 1.05421C56.8736 0.929274 56.4088 1.1613 56.7574 1.18403C57.3939 1.22558 57.8362 1.29905 58.583 1.20893C58.8008 1.18224 59.3231 0.990474 59.746 1.13881C59.8016 1.15823 59.7709 1.25993 59.8156 1.26588C60.6261 1.36516 60.6474 1.04561 61.1106 0.93739C61.5738 0.829192 62.2893 1.04978 62.4349 1.11335C62.8158 1.27782 62.143 1.18364 62.1224 1.19978C61.88 1.39185 62.4018 1.35878 62.8005 1.37501C62.8583 1.68833 63.4158 1.66952 63.2139 1.39057C63.1909 1.36011 62.8806 1.38932 62.8005 1.37501C63.1505 1.0676 63.7633 1.02823 64.4401 1.3155C64.7569 1.45014 64.4574 1.60712 65.4198 1.54969C65.8565 1.52377 65.6878 1.30803 66.0732 1.24922C66.9538 1.11502 68.098 1.31627 69.0059 1.28456C69.3354 1.27305 69.0144 1.15495 69.2396 1.14302C69.8372 1.11097 70.3642 1.19958 70.9643 1.15419C71.0187 1.14992 70.8859 1.02631 71.0725 1.02473C72.4873 1.01037 73.7193 1.08955 75.1965 1.09175C75.9103 1.09275 77.1864 1.02457 77.9258 1.03828C79.2072 1.06131 80.7837 1.24107 81.8784 1.1974C82.289 1.18133 82.4117 1.13361 82.5 1.07994C82.5688 1.04036 82.6181 0.997357 82.7561 0.963206C83.387 0.798969 84.4722 1.18316 84.6077 1.24951C84.6105 1.24913 83.9713 1.21935 84.3052 1.31367C84.4884 1.46368 84.6001 1.24942 84.6077 1.24951C84.7038 1.27906 85.9674 1.49017 86.2192 1.52736C86.3571 1.54134 86.3042 1.41152 86.376 1.4213C88.0912 1.66049 89.7738 2.20915 91.3194 3.05384C91.3459 3.06994 91.2452 3.16576 91.3079 3.20207C92.1774 3.71643 92.8081 3.91707 93.5603 4.31119C94.3092 4.70892 94.8204 5.16098 95.0522 5.65138C95.5555 6.03433 96.1431 6.73214 96.4527 7.14886C96.7635 7.56393 96.9968 7.45039 97.0324 7.48072C98.1007 8.45309 98.4923 9.22159 99.246 10.4959C99.6093 11.1016 100.276 12.3355 100.584 13.0404C100.835 13.5937 100.903 13.9576 101.113 14.4763C101.141 14.5468 101.226 14.4391 101.237 14.4598C101.555 15.0194 101.198 14.8122 101.188 14.9493C101.144 15.4474 101.131 15.7376 101.381 16.4896C101.439 16.661 101.932 17.1101 102.006 17.447C102.1 17.878 101.936 17.7326 102.027 18.1842C102.034 18.223 102.123 18.2042 102.148 18.489C102.205 19.1349 102.225 19.8136 102.211 20.5C102.197 21.2087 102.148 21.9188 102.078 22.6097C102.059 22.7965 102.225 22.572 102.198 22.8433C102.068 24.114 101.757 25.4931 101.305 26.6524C101.193 26.9375 101.16 26.7242 101.111 26.7777C100.818 27.1019 100.853 27.7237 100.82 27.8155C100.067 29.9688 98.9653 31.3655 97.5877 33.2033C97.5185 33.3037 97.0732 34.2211 96.5938 34.3623C96.5608 34.374 96.094 34.5035 95.9324 34.8787C95.9217 34.9021 96.2031 34.8115 95.8521 35.1187C95.5023 35.424 94.9798 35.9773 94.3849 36.253C94.1954 36.3421 93.6793 36.4282 93.2862 36.9162C93.2687 36.9495 92.6988 37.8202 92.2531 37.7216C92.1803 37.7037 92.0799 37.4087 91.527 37.8849C91.4198 37.9755 91.6744 37.9248 91.3717 38.1286C90.9045 38.4416 90.2009 38.6678 89.6116 39.0433C89.5105 39.1099 89.1002 39.4917 88.6556 39.4628C88.5866 39.4582 88.6701 39.3208 88.4608 39.375C87.4703 39.6291 86.4385 39.9397 85.3987 40.0182C85.0327 40.044 85.1947 39.8504 84.8137 39.8515C84.4304 39.8544 83.675 39.8703 83.2838 39.9603C82.891 40.0511 83.3356 40.3132 82.733 40.3465C82.6554 40.3502 82.5778 40.3532 82.5 40.3556C80.1277 40.4332 77.7759 40.2821 75.4059 40.2594C75.0437 40.256 75.3439 40.3534 74.8102 40.3552C72.8422 40.3625 69.4446 40.4538 67.737 40.2468C66.3687 40.081 68.0906 39.9548 67.045 39.8874C66.5405 39.8552 65.9947 40.1717 65.8729 40.1816C64.6831 40.2828 63.8562 40.1426 62.7853 40.1857C62.5642 40.1946 62.7811 40.3228 62.5929 40.329C61.95 40.3513 61.2744 40.294 60.6601 40.3045C60.3845 40.3095 60.4353 40.4075 60.1817 40.3999C59.5749 40.3829 59.0383 40.3417 58.4468 40.2499C58.3929 40.2416 58.7564 40.1197 58.3075 40.1152C57.5809 40.1082 56.6791 40.0176 55.8432 40.1111C55.5951 40.1393 55.5854 40.3632 55.0523 40.2085C54.9404 40.1763 55.0831 39.9074 54.4621 40.1397C54.3576 40.1783 53.3144 40.4916 52.8023 40.2897C52.6673 40.2365 52.3225 40.0165 52.0243 40.0511C51.9838 40.0566 52.1459 40.1769 51.8987 40.1886C51.0277 40.2278 50.1148 40.215 49.2199 40.2527C48.9809 40.263 49.3369 40.3874 48.9807 40.3988C48.0013 40.4302 46.7785 40.3986 45.8208 40.3596C45.4677 40.345 45.7117 40.2419 45.6861 40.2307C45.2729 40.0482 45.0286 40.2945 44.8915 40.3089C44.0386 40.3949 43.3892 40.2792 42.6031 40.3098C42.3861 40.3179 42.54 40.4354 42.4968 40.4458C42.0489 40.5482 42.3825 40.3373 42.099 40.314C41.3048 40.2482 40.4195 40.2576 39.6164 40.2726C39.3213 40.2783 39.6529 40.4145 39.3882 40.418C37.8212 40.4415 36.1922 40.4285 34.6629 40.3534C34.3749 40.339 34.5561 40.2341 34.4961 40.2102C34.0825 40.0426 33.4763 40.2712 33.3368 40.293C32.7026 40.3924 32.4562 40.2996 31.8961 40.3169C29.16 40.4031 25.7816 40.3417 23.1989 40.3038C22.2494 40.29 21.3599 40.2722 20.5 40.2542C18.1646 40.198 16.0488 39.8023 13.7372 38.988C13.5325 38.9141 13.6902 39.1214 13.5124 39.0583C11.2194 38.229 9.16349 36.9207 7.3169 35.3331C7.16552 35.2017 7.29266 35.4941 7.04641 35.2843C6.54042 34.854 5.95241 34.2477 5.54192 33.716C5.34197 33.4573 5.7149 33.7113 5.51371 33.4529C5.04788 32.8503 4.56072 32.2013 4.10647 31.5663C3.91377 31.2955 4.08028 31.7888 3.83881 31.4283C2.20425 28.9679 1.12038 26.1511 0.894962 23.178C0.880239 22.974 1.12852 22.7643 1.03535 22.3458C0.956408 22.3209 0.867222 22.3308 0.784728 22.3241C0.723035 21.7176 0.69208 21.1109 0.690805 20.5C0.677805 16.8308 1.77746 13.2045 3.72857 10.0992C3.82506 9.94609 3.53456 10.1343 3.72267 9.83688C4.81752 8.12494 6.11355 6.57786 7.79533 5.35169C7.96324 5.23177 8.04176 5.49129 8.48646 5.0901C8.5622 5.01557 9.26706 4.45185 9.43337 4.27804C9.45525 4.25318 9.24972 4.24769 9.49135 4.07996C10.8975 3.10956 12.5372 2.32885 14.1707 1.85523C14.4345 1.7794 14.1983 1.99258 14.3858 1.94048C15.7075 1.57161 17.1622 1.17022 18.4801 1.15442C19.356 1.15166 19.0523 1.40272 19.5196 1.5904C19.5844 1.61577 20.1105 1.60303 20.1399 1.73032C20.2132 2.04586 19.9743 2.39827 20.0829 2.73387C20.105 2.8036 20.7684 2.72228 20.3764 2.89978C20.3485 2.91029 19.873 2.97828 19.7605 3.04453C19.6818 3.08922 19.8314 3.21093 19.671 3.27102C19.5113 3.33156 19.3233 3.2342 19.0582 3.31815C18.7946 3.40525 18.9266 3.53449 18.3975 3.61321ZM97.7411 9.08351C97.9218 9.53365 98.328 9.33056 97.935 8.97741C97.9154 8.96071 97.7313 9.06041 97.7411 9.08351ZM44.2111 1.52919C44.8103 1.72707 45.2203 1.4361 44.7976 1.28328C44.375 1.13061 44.0285 1.4692 44.2111 1.52919ZM37.9975 1.67365C38.6978 1.82968 38.8081 1.19348 38.058 1.32209C38.0144 1.32936 37.9566 1.6646 37.9975 1.67365ZM17.4416 1.87375C17.4492 1.87763 17.8235 1.82648 17.8315 1.82031C18.0119 1.64893 17.2574 1.75136 17.4416 1.87375ZM31.8316 1.83094C32.0502 1.917 32.6797 1.81766 32.408 1.71064C32.1894 1.62455 31.5593 1.72389 31.8316 1.83094ZM97.2846 31.7265C97.2752 31.7285 97.1075 31.9357 97.1402 31.9546C97.2478 32.016 97.4479 31.698 97.2846 31.7265ZM21.3519 1.83827C22.9002 1.86221 23.839 2.38774 22.1529 2.32844C21.8475 2.31771 22.8109 2.16085 22.4223 2.11347C21.7112 2.02716 21.239 2.35712 20.5133 2.18031C20.3819 2.14794 21.2635 1.83573 21.3546 1.83753C21.3537 1.83778 21.3528 1.83802 21.3519 1.83827ZM97.4669 9.61911C97.4682 9.62951 97.677 9.93224 97.6862 9.93664C97.9193 10.0188 97.4959 9.40346 97.4669 9.61911ZM84.0218 38.723C84.0014 38.7167 83.1576 38.7541 83.1314 38.7619C82.6945 39.0201 84.4204 38.9475 84.0218 38.723ZM75.1571 2.32551C74.7558 2.46879 74.2756 2.48567 73.9557 2.30573C74.3545 2.31528 74.7561 2.31669 75.1571 2.32551Z" fill="#323133"/>
</svg>
