<svg width="256" height="29" viewBox="0 0 256 29" fill="none" xmlns="http://www.w3.org/2000/svg">
<path d="M0 14.5C0 7.04416 6.04416 1 13.5 1H241.5C248.956 1 255 7.04416 255 14.5C255 21.9558 248.956 28 241.5 28H13.5C6.04416 28 0 21.9558 0 14.5Z" fill="white"/>
<path d="M18.6514 0.505085C21.682 0.492059 25.6547 0.505987 28.6739 0.525104C29.6201 0.531034 29.141 0.557538 29.7942 0.562824C31.0717 0.573129 32.2618 0.56013 33.5242 0.572406C33.9426 0.576605 33.4218 0.618587 33.8605 0.622028C36.2645 0.640582 38.5388 0.629888 40.9741 0.638813C52.9695 0.682843 64.7607 0.698602 76.9028 0.717731C80.9064 0.724002 85.7733 0.762103 89.9086 0.745441C90.3913 0.743458 90.1035 0.706608 90.1953 0.703571C91.6359 0.657075 91.1569 0.731467 92.0975 0.741351C95.8306 0.780377 99.9818 0.783771 103.575 0.769549C105.103 0.763391 103.57 0.690198 105.109 0.73128C105.216 0.734056 104.829 0.773188 105.248 0.777362C106.198 0.786749 108.002 0.779755 108.738 0.782855C110.158 0.789028 110.393 0.788635 111.736 0.789081C113.572 0.790031 115.756 0.809483 117.725 0.800616C118.146 0.798607 117.589 0.758493 118.26 0.751666C118.931 0.744851 120.706 0.748252 121.305 0.757709C121.903 0.76717 121.648 0.798699 121.754 0.805926C122.626 0.866925 124.68 0.782442 124.944 0.780353C129.762 0.744753 133.894 0.79288 138.416 0.792743C141.849 0.792536 145.52 0.776648 148.787 0.778827C152.679 0.781578 155.978 0.803315 159.759 0.799579C160.158 0.79923 159.69 0.752065 160.178 0.751544C165.355 0.746056 170.497 0.751197 175.653 0.783038C176.17 0.786273 175.503 0.827684 176.02 0.833392C179.183 0.867424 184.187 0.949179 186.065 0.768878C188.208 0.775918 190.808 0.783193 192.725 0.819537C193.961 0.842929 192.76 0.888042 194.278 0.868792C194.621 0.864503 194.176 0.824995 194.689 0.821551C196.851 0.807088 199.212 0.81993 201.351 0.799518C201.786 0.795273 201.667 0.759872 201.79 0.753497C202.826 0.701871 204.55 0.787213 204.926 0.793414C207.788 0.839658 209.879 0.82146 212.545 0.822589C213.164 0.822871 212.432 0.77532 213.028 0.773883C216.116 0.767068 219.315 0.771155 222.339 0.792254C223.011 0.797062 222.393 0.837567 222.714 0.841937C224.131 0.860712 224.445 0.784209 225.805 0.800738C226.091 0.804125 225.93 0.8388 225.982 0.842608C226.8 0.902389 227.511 0.817684 227.721 0.815814C230.383 0.790261 232.084 0.878689 234.655 0.866168C234.963 0.86458 234.269 0.820706 235.134 0.818927C237.224 0.814533 239.357 0.813319 241.5 0.815232C245.328 0.787731 249.111 2.53586 251.558 5.27809C252.15 5.95122 251.7 5.49436 251.735 5.53893C252.288 6.26957 252.683 6.71245 252.85 6.95348C254.162 8.86445 254.726 10.988 255.039 12.5186C255.132 13.1756 255.177 13.836 255.175 14.5C255.336 21.8046 248.754 28.3588 241.5 28.1508C239.605 28.1425 237.71 28.1303 235.818 28.1124C235.696 28.1114 235.914 28.0695 235.671 28.0675C232.746 28.044 233.308 28.1091 231.372 28.1888C230.884 28.2088 229.401 28.1126 229.27 28.1056C228.791 28.0796 229.287 28.0173 229.127 28.0123C227.802 27.9728 228.018 28.1789 226.231 28.1789C226.175 28.1786 226.41 28.1407 226.26 28.1369C225.793 28.125 225.331 28.1401 224.875 28.1271C223.831 28.0968 223.46 27.9967 221.865 28.055C221.663 28.0625 221.971 28.1795 220.376 28.1739C219.739 28.1716 216.923 28.1736 216.134 28.1661C215.346 28.1585 215.887 28.1208 215.831 28.1192C213.706 28.0694 214.512 28.0487 213.448 27.975C212.384 27.9015 212.679 28.0767 212.245 28.0963C211.81 28.1158 210.253 28.0747 209.87 28.0604C209.488 28.0461 209.965 28.0222 209.625 28.0141C207.37 27.9612 208.635 28.1011 207.892 28.1289C206.14 28.1948 204.775 28.0648 203.171 28.052C202.737 28.0486 203.092 28.0782 202.705 28.081C201.175 28.0915 200.254 28.051 198.513 28.0882C198.228 28.0942 196.82 28.1724 195.909 28.115C195.78 28.1068 196.147 28.0744 195.495 28.0671C194.52 28.0562 192.765 28.0492 191.717 28.06C190.944 28.068 191.83 28.1214 190.857 28.1048C190.424 28.0974 191.226 28.0662 190.413 28.0549C189.605 28.0436 187.538 28.0449 186.751 28.046C185.966 28.0471 186.396 28.0876 186.332 28.0903C185.949 28.1059 184.442 28.1255 184.309 28.1254C177.592 28.1304 171.399 28.0621 164.86 28.0847C164.347 28.0864 164.688 28.1291 164.61 28.1298C162.853 28.1477 164.238 28.0342 163.011 27.9962C163.189 28.0828 162.464 28.0671 161.227 28.0766C160.63 28.0813 160.955 28.1148 160.901 28.1183C160.016 28.1692 159.401 28.1034 159.242 28.0899C158.656 28.0404 158.019 28.0989 157.62 28.0658C157.222 28.033 158.139 27.9843 156.952 27.9849C156.619 28.0159 157.5 28.097 156.599 28.1101C153.199 28.1598 146.853 28.0962 144.12 28.0896C141.391 28.083 140.51 28.0887 138.921 28.0775C136.049 28.0572 137.101 28.1174 135.318 28.1449C133.53 28.1724 134.399 28.0245 134.142 27.9927C133.89 27.9609 133.615 27.9936 133.301 27.9761C132.988 27.9586 133.665 27.937 132.929 27.9305C132.193 27.9239 130.18 27.9805 129.919 28.0137C129.368 28.0842 130.275 28.1581 128.327 28.1321C128.215 28.1306 128.578 28.0917 128.149 28.0878C124.742 28.0578 121.202 28.0559 117.799 28.0295C117.331 28.0258 117.749 27.9825 117.477 27.9798C114.64 27.9522 115.654 28.0251 114.099 28.1062C114.449 27.9983 113.589 27.9323 111.436 27.9317C110.142 27.9313 110.365 27.9784 109.528 28.0116C109.277 28.0216 108.361 27.9892 108.195 28.0114C107.648 28.0838 108.51 28.1649 106.291 28.1326C106.193 28.1311 106.503 28.0914 106.167 28.089C103.992 28.0733 103.732 28.1491 101.38 28.1582C99.5376 28.1654 96.2601 28.1193 94.1617 28.1117C94.2059 27.9905 92.2239 28.0182 91.4199 28.1019C90.0581 28.0984 88.5872 28.1032 87.271 28.0916C86.818 28.0877 87.1156 28.0525 87.0585 28.0487C86.1826 27.9892 85.5905 28.0706 85.2966 28.0738C82.1108 28.1048 79.5152 28.0431 76.4748 28.1034C76.3669 28.1055 76.1921 28.1898 75.3793 28.1283C75.3268 28.124 76.3309 28.0857 74.9007 28.0827C73.4702 28.0798 70.7736 28.0346 68.7877 28.0737C68.3072 28.083 67.0916 28.1514 66.116 28.098C65.9861 28.0907 66.1283 28.0666 65.9407 28.0531C65.3341 28.0103 65.003 28.0955 64.2902 28.0231C63.5774 27.9508 62.0946 27.8966 60.0918 27.9465C60.028 27.948 59.5539 28.0155 58.9241 28.0144C57.9187 28.0126 56.4914 27.9986 55.4416 27.999C54.9389 27.9992 55.2607 28.0411 55.1734 28.0419C51.7938 28.0654 49.3883 28.028 45.7678 28.0118C45.1041 28.0088 43.1967 28.0659 41.9118 28.0207C40.501 27.9713 41.9508 27.7655 38.7078 27.8146C37.3999 27.8342 35.7439 28.0952 33.3933 27.9599C28.8346 27.9935 24.6186 27.9242 20.0472 27.9721C19.8416 27.9742 19.1915 28.0471 18.7082 28.0461C17.9907 28.0445 17.5969 28.0104 17.0846 28.0082C15.8475 28.0023 14.671 28.0094 13.5 28.0157C12.6375 28.0201 11.7767 27.9443 10.9143 27.7756C10.1446 27.6096 10.4177 27.6475 9.51927 27.3864C8.63177 27.0981 8.02048 26.9222 6.91441 26.2941C6.08711 25.8062 5.34308 25.192 4.42176 24.333C4.33218 24.3629 3.64633 23.8067 2.68704 22.5825C2.50547 22.3455 2.66972 22.6223 2.58254 22.5109C2.22755 22.0554 1.96176 21.5904 1.6778 21.1227C1.60899 21.0084 1.578 21.0179 1.52139 20.9245C1.01555 20.1352 0.563965 18.6589 0.517432 18.4022C0.283914 17.4253 0.164197 16.9703 0.0783203 16.2052C0.0109365 15.4392 0.156689 16.5775 0.0768045 15.6865C0.048768 15.3104 0.033634 14.9137 0.0363475 14.5C0.0341335 12.8857 0.382648 11.0815 0.931042 9.68807C1.20873 8.99209 0.980171 9.45073 1.01886 9.35072C1.59438 7.89784 2.53493 6.62253 3.02314 5.90893C3.90629 5.25182 3.55576 5.1105 5.31562 3.73046C5.45952 3.62827 5.69283 3.57446 5.17471 3.9952C4.6596 4.41758 3.88777 5.08151 3.30737 5.8058C3.15534 5.96815 2.48339 7.02806 2.40827 7.17987C1.732 8.32314 1.55748 8.44793 1.50746 8.50273C1.03904 9.17616 0.632934 10.6779 0.557679 11.0712C0.259718 12.2928 0.135462 13.4206 0.137519 14.5C0.139148 15.0073 0.169955 15.5006 0.231552 15.9882C0.37374 16.9861 0.504472 17.0629 0.684107 17.824C1.41084 20.3115 1.77397 21.2444 3.39773 23.0984C3.77927 23.4663 3.44694 23.06 4.75844 24.412C4.83268 24.5024 5.87623 25.4582 6.61071 25.8213C6.70109 25.8686 6.71477 25.8394 6.83142 25.9049C7.61697 26.3359 8.14853 26.6201 9.07082 26.9441C9.99386 27.2637 11.1465 27.5167 12.2545 27.6273C12.6513 27.6693 13.1161 27.713 13.5 27.7332C13.7649 27.7475 13.9887 27.761 14.122 27.767C15.0509 27.8095 16.0469 27.7398 16.6224 27.7912C17.2028 27.843 16.0682 27.9216 17.59 27.955C17.6463 27.8709 17.7759 27.7847 17.8665 27.7001C21.2015 27.7031 24.483 27.7303 27.8292 27.7265C28.244 27.726 27.8198 27.6808 28.2645 27.6791C30.1408 27.6719 31.7797 27.7041 33.7255 27.6913C35.2317 27.6812 36.8833 27.6333 38.4582 27.6213C39.4202 27.7175 41.7573 27.6848 43.455 27.6936C44.0498 27.6966 44.01 27.7223 44.4329 27.7307C46.0285 27.7617 45.2808 27.6767 45.7182 27.6633C47.595 27.6062 47.7556 27.7986 49.9682 27.7939C50.0854 27.7937 51.5183 27.6911 51.7156 27.6847C52.9696 27.6431 51.9232 27.7204 52.708 27.728C54.1409 27.7419 55.1366 27.7663 56.8177 27.7363C57.3079 27.7274 58.4838 27.6635 59.4358 27.7129C59.561 27.7194 59.4918 27.7533 59.5925 27.7553C61.4171 27.7884 61.4651 27.6819 62.5077 27.6458C63.5505 27.6097 65.1611 27.6833 65.4889 27.7045C66.3464 27.7593 64.8318 27.7279 64.7853 27.7333C64.2399 27.7973 65.4145 27.7863 66.312 27.7917C66.442 27.8961 67.6972 27.8898 67.2425 27.7969C67.1908 27.7867 66.4923 27.7964 66.312 27.7917C67.0998 27.6892 68.4793 27.6761 70.0029 27.7718C70.7161 27.8167 70.0418 27.869 72.2084 27.8499C73.1916 27.8413 72.8116 27.7693 73.6793 27.7497C75.6616 27.705 78.2376 27.7721 80.2812 27.7615C81.023 27.7577 80.3004 27.7183 80.8073 27.7143C82.1526 27.7037 83.339 27.7332 84.6901 27.7181C84.8125 27.7166 84.5134 27.6754 84.9335 27.6749C88.1186 27.6701 90.8919 27.6965 94.2174 27.6972C95.8242 27.6976 98.6968 27.6749 100.361 27.6794C103.246 27.6871 106.795 27.747 109.259 27.7325C110.867 27.7231 110.514 27.6819 111.203 27.6539C112.532 27.5994 114.884 27.6969 115.201 27.712C115.211 27.7125 113.828 27.7222 114.566 27.7434C114.995 27.7875 115.186 27.7122 115.201 27.712C115.409 27.7218 118.172 27.7311 118.721 27.7232C119.019 27.7189 118.852 27.6799 119.008 27.6784C122.702 27.6434 126.403 27.6335 130.15 27.6518C130.216 27.6526 130.117 27.6962 130.272 27.6976C132.441 27.717 133.83 27.6635 135.62 27.6318C137.408 27.6001 138.827 27.6107 139.886 27.6857C141.236 27.6763 143.172 27.7094 144.287 27.7295C145.401 27.7497 145.556 27.6646 145.654 27.6629C148.713 27.6091 150.48 27.6578 153.653 27.6654C155.161 27.6691 158.154 27.6568 159.787 27.6475C161.077 27.64 161.855 27.6599 163.044 27.6472C163.205 27.6455 163.043 27.6076 163.092 27.6062C164.419 27.5609 163.781 27.6534 164.055 27.67C165.049 27.7301 165.663 27.7621 167.362 27.7338C167.754 27.7273 168.896 27.5941 169.611 27.5863C170.54 27.5764 170.19 27.6242 171.163 27.6126C171.246 27.6116 171.228 27.5822 171.829 27.5835C174.616 27.5891 177.655 27.6063 180.552 27.6033C180.947 27.603 180.44 27.5563 181.012 27.5551C183.694 27.5496 186.634 27.5513 189.248 27.5732C189.891 27.5787 189.488 27.6114 189.627 27.6211C190.484 27.6799 191.7 27.5945 191.901 27.5929C196.686 27.5518 200.347 27.6291 205.224 27.5923C205.49 27.5902 207.533 27.4986 208.445 27.5771C208.507 27.5824 209.409 27.6627 210.207 27.6078C210.256 27.6043 209.694 27.563 210.675 27.5672C211.656 27.5714 213.234 27.5438 214.582 27.5892C215.009 27.6035 216.018 27.6837 217.291 27.6198C217.374 27.6153 219.34 27.4709 220.041 27.5705C220.155 27.5869 220.036 27.6924 221.556 27.6383C221.846 27.6279 221.319 27.6043 222.084 27.5896C223.256 27.567 224.809 27.5953 226.249 27.5483C226.5 27.5399 227.57 27.4683 228.428 27.5227C228.562 27.5312 228.307 27.5664 228.76 27.5704C230.914 27.5893 233.17 27.5657 235.358 27.5901C236.133 27.5986 235.736 27.6556 236.544 27.6708C237.352 27.6861 238.979 27.7007 239.824 27.6747C240.67 27.6487 239.746 27.558 241.013 27.5507C241.175 27.5498 241.338 27.5489 241.5 27.5481C246.685 27.5845 251.674 24.2761 253.612 19.4486C253.895 18.7114 253.657 19.32 254.012 18.2147C254.323 17.1703 254.547 15.8858 254.543 14.5C254.699 10.3615 251.946 5.98356 249.727 4.32465C247.342 2.5181 250.443 4.66481 248.565 3.34296C247.634 2.72568 246.477 2.35931 246.23 2.27316C244.486 1.63681 243.031 1.41135 241.5 1.3946C240.868 1.39202 240.223 1.39111 239.532 1.39522C239.035 1.39819 239.523 1.44095 239.099 1.44301C237.652 1.45042 236.131 1.43134 234.748 1.43483C234.128 1.43649 234.242 1.46915 233.671 1.46663C232.305 1.46098 231.097 1.44725 229.766 1.41664C229.644 1.41385 230.463 1.37323 229.452 1.37172C227.816 1.36939 225.786 1.3392 223.904 1.37038C223.346 1.37976 223.324 1.45439 222.124 1.40285C221.872 1.39208 222.193 1.30247 220.795 1.3799C220.56 1.39277 218.212 1.49721 217.059 1.42989C216.755 1.41217 215.979 1.33883 215.307 1.35036C215.216 1.3522 215.581 1.39229 215.025 1.3962C213.064 1.40928 211.009 1.405 208.994 1.41756C208.456 1.42099 209.258 1.46247 208.456 1.46626C206.251 1.47675 203.498 1.46619 201.342 1.4532C200.548 1.44834 201.097 1.41397 201.039 1.41023C200.109 1.34941 199.559 1.43151 199.25 1.4363C197.331 1.46496 195.869 1.42639 194.099 1.4366C193.61 1.43931 193.957 1.47846 193.86 1.48195C192.851 1.51605 193.602 1.44575 192.964 1.438C191.176 1.41606 189.183 1.41921 187.375 1.42421C186.711 1.42611 187.458 1.4715 186.862 1.47267C183.334 1.48049 179.667 1.47615 176.224 1.45113C175.576 1.44633 175.984 1.41138 175.849 1.4034C174.918 1.34755 173.553 1.42373 173.239 1.43099C171.811 1.46412 171.257 1.43321 169.996 1.43898C163.836 1.4677 156.231 1.44723 150.417 1.43459C142.841 1.41831 136.962 1.38506 129.737 1.39369C129.277 1.3942 129.74 1.4407 129.345 1.44173C124.234 1.45294 119.203 1.43477 114.082 1.4482C113.662 1.44922 114.267 1.4933 113.593 1.49641C112.209 1.50312 110.457 1.50072 109.058 1.48665C108.376 1.47987 109.291 1.44204 108.604 1.43599C107.005 1.42181 105.291 1.41867 103.649 1.42574C102.95 1.42884 104.004 1.47392 103.096 1.47444C96.9072 1.47891 90.8293 1.48668 84.5755 1.4283C84.1467 1.42429 83.7706 1.33267 82.859 1.35024C82.7903 1.37566 82.794 1.40558 82.7641 1.43276C73.755 1.4474 64.8379 1.41563 55.8036 1.41072C55.4227 1.41053 56.081 1.45907 55.3435 1.45894C51.0753 1.45822 46.9306 1.47167 42.5647 1.42342C42.1315 1.4187 42.3538 1.33329 41.0772 1.34621C40.8521 1.34856 38.9294 1.35996 38.4323 1.3785C38.3648 1.38129 38.7156 1.42116 38.0961 1.42232C34.4957 1.42837 30.7228 1.41927 27.1287 1.39491C26.5486 1.39091 27.1663 1.34845 26.7532 1.34523C23.8225 1.3227 20.6348 1.35497 17.8344 1.31642C15.9599 1.29047 16.6539 1.21709 15.6579 1.14485C15.517 1.13466 14.3562 1.13305 14.2962 1.09102C14.1421 0.98534 14.7043 0.869621 14.4736 0.756976C14.4249 0.732713 12.8704 0.758846 13.7908 0.700214C13.8551 0.69629 14.9821 0.67683 15.2597 0.65694C15.4529 0.643188 15.1047 0.600447 15.499 0.582843C15.8933 0.565256 16.3266 0.601084 16.9803 0.580402C17.6337 0.559464 17.3464 0.510841 18.6514 0.505085ZM149.304 27.8194C150.336 27.8603 150.488 27.7107 149.372 27.7465C149.318 27.7484 149.251 27.8174 149.304 27.8194ZM24.4643 27.8431C25.8132 27.909 26.7362 27.812 25.7846 27.7611C24.8332 27.7102 24.0533 27.8231 24.4643 27.8431ZM10.5245 27.5595C12.0555 27.9104 12.3197 27.722 10.6813 27.4742C10.5866 27.4563 10.4362 27.5361 10.5245 27.5595ZM20.2771 1.12428C20.2629 1.1223 19.4285 1.12036 19.4086 1.12233C18.9643 1.16983 20.6327 1.17366 20.2771 1.12428ZM0.729974 18.7138C0.836443 19.1968 1.44459 20.4752 1.23014 19.9034C1.03952 19.4533 0.574259 18.1239 0.729974 18.7138ZM203.128 27.979C203.144 27.9813 203.743 27.9833 203.731 27.9707C203.69 27.9301 202.857 27.9416 203.128 27.979ZM11.5954 1.18775C9.87193 1.42413 8.55359 1.93049 8.08874 2.08656C7.63119 2.27309 7.95925 1.95062 9.79497 1.40096C10.4566 1.20193 8.39095 1.90312 9.23302 1.64836C10.7653 1.19235 11.8228 0.906532 13.4697 0.939931C13.7614 0.925666 11.7849 1.1225 11.5894 1.18886C11.5914 1.18849 11.5934 1.18812 11.5954 1.18775ZM149.898 27.9991C149.919 28.001 150.747 28.0029 150.767 28.001C151.215 27.9535 149.547 27.9497 149.898 27.9991ZM238.034 28.0715C238.079 28.0757 240.001 28.0797 240.064 28.0758C241.066 27.9981 237.181 27.99 238.034 28.0715ZM94.1287 28.1085C93.2252 28.1563 92.1443 28.1619 91.424 28.1019C92.3219 28.1051 93.2259 28.1056 94.1287 28.1085Z" fill="#91929D"/>
</svg>
